<svg xmlns="http://www.w3.org/2000/svg" xmlns:xlink="http://www.w3.org/1999/xlink" width="500" zoomAndPan="magnify" viewBox="0 0 375 374.999991" height="500" preserveAspectRatio="xMidYMid meet" version="1.2"><defs><clipPath id="c562595ba4"><path d="M 25.863281 168.621094 L 105.601562 168.621094 L 105.601562 228.257812 L 25.863281 228.257812 Z M 25.863281 168.621094 "/></clipPath><clipPath id="0d820381a7"><path d="M 32.675781 146.730469 L 106.109375 146.730469 L 106.109375 186.308594 L 32.675781 186.308594 Z M 32.675781 146.730469 "/></clipPath><clipPath id="b30cae7bab"><path d="M 40.035156 160.390625 L 95 160.390625 L 95 212.890625 L 40.035156 212.890625 Z M 40.035156 160.390625 "/></clipPath></defs><g id="84de7de1a9"><g style="fill:#000000;fill-opacity:1;"><g transform="translate(113.489902, 210.749986)"><path style="stroke:none" d="M 0.78125 0 C 0.257812 0 0 -0.257812 0 -0.78125 L 0 -38.328125 C 0 -38.847656 0.257812 -39.109375 0.78125 -39.109375 L 46.78125 -39.109375 C 49.070312 -39.109375 50.972656 -38.351562 52.484375 -36.84375 C 53.992188 -35.332031 54.75 -33.425781 54.75 -31.125 L 54.75 -23.625 C 54.75 -21.332031 53.992188 -19.425781 52.484375 -17.90625 C 50.972656 -16.394531 49.070312 -15.640625 46.78125 -15.640625 L 46 -15.640625 L 51.46875 0 L 42.859375 0 L 37.390625 -15.640625 L 7.828125 -15.640625 L 7.828125 -0.78125 C 7.828125 -0.257812 7.566406 0 7.046875 0 Z M 7.828125 -23.46875 L 45.359375 -23.46875 C 45.785156 -23.46875 46.15625 -23.625 46.46875 -23.9375 C 46.78125 -24.25 46.9375 -24.613281 46.9375 -25.03125 L 46.9375 -29.71875 C 46.9375 -30.132812 46.78125 -30.5 46.46875 -30.8125 C 46.15625 -31.125 45.785156 -31.28125 45.359375 -31.28125 L 7.828125 -31.28125 Z M 7.828125 -23.46875 "/></g></g><g style="fill:#000000;fill-opacity:1;"><g transform="translate(176.068058, 210.749986)"><path style="stroke:none" d="M 0.78125 0 C 0.257812 0 0 -0.257812 0 -0.78125 L 0 -38.328125 C 0 -38.847656 0.257812 -39.109375 0.78125 -39.109375 L 46.78125 -39.109375 C 49.070312 -39.109375 50.972656 -38.351562 52.484375 -36.84375 C 53.992188 -35.332031 54.75 -33.425781 54.75 -31.125 L 54.75 -23.625 C 54.75 -22.164062 54.410156 -20.804688 53.734375 -19.546875 C 54.410156 -18.296875 54.75 -16.941406 54.75 -15.484375 L 54.75 -7.984375 C 54.75 -5.679688 53.992188 -3.773438 52.484375 -2.265625 C 50.972656 -0.753906 49.070312 0 46.78125 0 Z M 7.828125 -7.828125 L 45.359375 -7.828125 C 45.785156 -7.828125 46.15625 -7.984375 46.46875 -8.296875 C 46.78125 -8.609375 46.9375 -8.972656 46.9375 -9.390625 L 46.9375 -14.078125 C 46.9375 -14.492188 46.78125 -14.859375 46.46875 -15.171875 C 46.15625 -15.484375 45.785156 -15.640625 45.359375 -15.640625 L 7.828125 -15.640625 Z M 7.828125 -23.46875 L 45.359375 -23.46875 C 45.785156 -23.46875 46.15625 -23.625 46.46875 -23.9375 C 46.78125 -24.25 46.9375 -24.613281 46.9375 -25.03125 L 46.9375 -29.71875 C 46.9375 -30.132812 46.78125 -30.5 46.46875 -30.8125 C 46.15625 -31.125 45.785156 -31.28125 45.359375 -31.28125 L 7.828125 -31.28125 Z M 7.828125 -23.46875 "/></g></g><g style="fill:#000000;fill-opacity:1;"><g transform="translate(238.646213, 210.749986)"><path style="stroke:none" d="M 0.78125 0 C 0.257812 0 0 -0.257812 0 -0.78125 L 0 -7.046875 C 0 -7.566406 0.257812 -7.828125 0.78125 -7.828125 L 45.359375 -7.828125 C 45.785156 -7.828125 46.15625 -7.984375 46.46875 -8.296875 C 46.78125 -8.609375 46.9375 -8.972656 46.9375 -9.390625 L 46.9375 -15.640625 L 7.984375 -15.640625 C 5.679688 -15.640625 3.773438 -16.394531 2.265625 -17.90625 C 0.753906 -19.425781 0 -21.332031 0 -23.625 L 0 -38.328125 C 0 -38.847656 0.257812 -39.109375 0.78125 -39.109375 L 7.046875 -39.109375 C 7.566406 -39.109375 7.828125 -38.847656 7.828125 -38.328125 L 7.828125 -25.03125 C 7.828125 -24.613281 7.984375 -24.25 8.296875 -23.9375 C 8.609375 -23.625 8.972656 -23.46875 9.390625 -23.46875 L 46.9375 -23.46875 L 46.9375 -38.328125 C 46.9375 -38.847656 47.195312 -39.109375 47.71875 -39.109375 L 53.96875 -39.109375 C 54.488281 -39.109375 54.75 -38.847656 54.75 -38.328125 L 54.75 -7.984375 C 54.75 -5.679688 53.992188 -3.773438 52.484375 -2.265625 C 50.972656 -0.753906 49.070312 0 46.78125 0 Z M 0.78125 0 "/></g></g><g style="fill:#000000;fill-opacity:1;"><g transform="translate(301.224369, 210.749986)"><path style="stroke:none" d="M 7.984375 0 C 5.679688 0 3.773438 -0.753906 2.265625 -2.265625 C 0.753906 -3.773438 0 -5.679688 0 -7.984375 L 0 -15.484375 C 0 -17.773438 0.753906 -19.675781 2.265625 -21.1875 C 3.773438 -22.707031 5.679688 -23.46875 7.984375 -23.46875 L 45.359375 -23.46875 C 45.785156 -23.46875 46.15625 -23.625 46.46875 -23.9375 C 46.78125 -24.25 46.9375 -24.613281 46.9375 -25.03125 L 46.9375 -29.71875 C 46.9375 -30.132812 46.78125 -30.5 46.46875 -30.8125 C 46.15625 -31.125 45.785156 -31.28125 45.359375 -31.28125 L 0.78125 -31.28125 C 0.257812 -31.28125 0 -31.539062 0 -32.0625 L 0 -38.328125 C 0 -38.847656 0.257812 -39.109375 0.78125 -39.109375 L 46.78125 -39.109375 C 49.070312 -39.109375 50.972656 -38.351562 52.484375 -36.84375 C 53.992188 -35.332031 54.75 -33.425781 54.75 -31.125 L 54.75 -23.625 C 54.75 -21.332031 53.992188 -19.425781 52.484375 -17.90625 C 50.972656 -16.394531 49.070312 -15.640625 46.78125 -15.640625 L 9.390625 -15.640625 C 8.972656 -15.640625 8.609375 -15.484375 8.296875 -15.171875 C 7.984375 -14.859375 7.828125 -14.492188 7.828125 -14.078125 L 7.828125 -9.390625 C 7.828125 -8.972656 7.984375 -8.609375 8.296875 -8.296875 C 8.609375 -7.984375 8.972656 -7.828125 9.390625 -7.828125 L 53.96875 -7.828125 C 54.488281 -7.828125 54.75 -7.566406 54.75 -7.046875 L 54.75 -0.78125 C 54.75 -0.257812 54.488281 0 53.96875 0 Z M 7.984375 0 "/></g></g><g style="fill:#00c008;fill-opacity:1;"><g transform="translate(247.514314, 243.226858)"><path style="stroke:none" d="M 0.25 0 C 0.0820312 0 0 -0.0820312 0 -0.25 L 0 -2.25 C 0 -2.414062 0.0820312 -2.5 0.25 -2.5 L 14.5 -2.5 C 14.632812 -2.5 14.75 -2.546875 14.84375 -2.640625 C 14.945312 -2.742188 15 -2.863281 15 -3 L 15 -4.5 C 15 -4.632812 14.945312 -4.75 14.84375 -4.84375 C 14.75 -4.945312 14.632812 -5 14.5 -5 L 2.546875 -5 C 1.816406 -5 1.207031 -5.238281 0.71875 -5.71875 C 0.238281 -6.207031 0 -6.816406 0 -7.546875 L 0 -9.953125 C 0 -10.679688 0.238281 -11.285156 0.71875 -11.765625 C 1.207031 -12.253906 1.816406 -12.5 2.546875 -12.5 L 17.25 -12.5 C 17.414062 -12.5 17.5 -12.414062 17.5 -12.25 L 17.5 -10.25 C 17.5 -10.082031 17.414062 -10 17.25 -10 L 3 -10 C 2.863281 -10 2.742188 -9.945312 2.640625 -9.84375 C 2.546875 -9.75 2.5 -9.632812 2.5 -9.5 L 2.5 -8 C 2.5 -7.863281 2.546875 -7.742188 2.640625 -7.640625 C 2.742188 -7.546875 2.863281 -7.5 3 -7.5 L 14.953125 -7.5 C 15.679688 -7.5 16.285156 -7.253906 16.765625 -6.765625 C 17.253906 -6.285156 17.5 -5.679688 17.5 -4.953125 L 17.5 -2.546875 C 17.5 -1.816406 17.253906 -1.207031 16.765625 -0.71875 C 16.285156 -0.238281 15.679688 0 14.953125 0 Z M 0.25 0 "/></g></g><g style="fill:#00c008;fill-opacity:1;"><g transform="translate(267.511147, 243.226858)"><path style="stroke:none" d="M 7.75 0 C 7.582031 0 7.5 -0.0820312 7.5 -0.25 L 7.5 -10 L 0.25 -10 C 0.0820312 -10 0 -10.082031 0 -10.25 L 0 -12.25 C 0 -12.414062 0.0820312 -12.5 0.25 -12.5 L 17.25 -12.5 C 17.414062 -12.5 17.5 -12.414062 17.5 -12.25 L 17.5 -10.25 C 17.5 -10.082031 17.414062 -10 17.25 -10 L 10 -10 L 10 -0.25 C 10 -0.0820312 9.914062 0 9.75 0 Z M 7.75 0 "/></g></g><g style="fill:#00c008;fill-opacity:1;"><g transform="translate(287.507979, 243.226858)"><path style="stroke:none" d="M 2.546875 0 C 1.816406 0 1.207031 -0.238281 0.71875 -0.71875 C 0.238281 -1.207031 0 -1.816406 0 -2.546875 L 0 -12.25 C 0 -12.414062 0.0820312 -12.5 0.25 -12.5 L 2.25 -12.5 C 2.414062 -12.5 2.5 -12.414062 2.5 -12.25 L 2.5 -3 C 2.5 -2.863281 2.546875 -2.742188 2.640625 -2.640625 C 2.742188 -2.546875 2.863281 -2.5 3 -2.5 L 14.5 -2.5 C 14.632812 -2.5 14.75 -2.546875 14.84375 -2.640625 C 14.945312 -2.742188 15 -2.863281 15 -3 L 15 -12.25 C 15 -12.414062 15.082031 -12.5 15.25 -12.5 L 17.25 -12.5 C 17.414062 -12.5 17.5 -12.414062 17.5 -12.25 L 17.5 -2.546875 C 17.5 -1.816406 17.253906 -1.207031 16.765625 -0.71875 C 16.285156 -0.238281 15.679688 0 14.953125 0 Z M 2.546875 0 "/></g></g><g style="fill:#00c008;fill-opacity:1;"><g transform="translate(307.504812, 243.226858)"><path style="stroke:none" d="M 0.25 0 C 0.0820312 0 0 -0.0820312 0 -0.25 L 0 -12.25 C 0 -12.414062 0.0820312 -12.5 0.25 -12.5 L 14.953125 -12.5 C 15.679688 -12.5 16.285156 -12.253906 16.765625 -11.765625 C 17.253906 -11.285156 17.5 -10.679688 17.5 -9.953125 L 17.5 -2.546875 C 17.5 -1.816406 17.253906 -1.207031 16.765625 -0.71875 C 16.285156 -0.238281 15.679688 0 14.953125 0 Z M 2.5 -2.5 L 14.5 -2.5 C 14.632812 -2.5 14.75 -2.546875 14.84375 -2.640625 C 14.945312 -2.742188 15 -2.863281 15 -3 L 15 -9.5 C 15 -9.632812 14.945312 -9.75 14.84375 -9.84375 C 14.75 -9.945312 14.632812 -10 14.5 -10 L 2.5 -10 Z M 2.5 -2.5 "/></g></g><g style="fill:#00c008;fill-opacity:1;"><g transform="translate(327.501644, 243.226858)"><path style="stroke:none" d="M 0.25 0 C 0.0820312 0 0 -0.0820312 0 -0.25 L 0 -8.5 C 0 -8.664062 0.0820312 -8.75 0.25 -8.75 L 2.25 -8.75 C 2.414062 -8.75 2.5 -8.664062 2.5 -8.5 L 2.5 -0.25 C 2.5 -0.0820312 2.414062 0 2.25 0 Z M 0.25 -10 C 0.0820312 -10 0 -10.082031 0 -10.25 L 0 -12.25 C 0 -12.414062 0.0820312 -12.5 0.25 -12.5 L 2.25 -12.5 C 2.414062 -12.5 2.5 -12.414062 2.5 -12.25 L 2.5 -10.25 C 2.5 -10.082031 2.414062 -10 2.25 -10 Z M 0.25 -10 "/></g></g><g style="fill:#00c008;fill-opacity:1;"><g transform="translate(332.500858, 243.226858)"><path style="stroke:none" d="M 2.546875 0 C 1.816406 0 1.207031 -0.238281 0.71875 -0.71875 C 0.238281 -1.207031 0 -1.816406 0 -2.546875 L 0 -9.953125 C 0 -10.679688 0.238281 -11.285156 0.71875 -11.765625 C 1.207031 -12.253906 1.816406 -12.5 2.546875 -12.5 L 14.953125 -12.5 C 15.679688 -12.5 16.285156 -12.253906 16.765625 -11.765625 C 17.253906 -11.285156 17.5 -10.679688 17.5 -9.953125 L 17.5 -2.546875 C 17.5 -1.816406 17.253906 -1.207031 16.765625 -0.71875 C 16.285156 -0.238281 15.679688 0 14.953125 0 Z M 3 -2.5 L 14.5 -2.5 C 14.632812 -2.5 14.75 -2.546875 14.84375 -2.640625 C 14.945312 -2.742188 15 -2.863281 15 -3 L 15 -9.5 C 15 -9.632812 14.945312 -9.75 14.84375 -9.84375 C 14.75 -9.945312 14.632812 -10 14.5 -10 L 3 -10 C 2.863281 -10 2.742188 -9.945312 2.640625 -9.84375 C 2.546875 -9.75 2.5 -9.632812 2.5 -9.5 L 2.5 -3 C 2.5 -2.863281 2.546875 -2.742188 2.640625 -2.640625 C 2.742188 -2.546875 2.863281 -2.5 3 -2.5 Z M 3 -2.5 "/></g></g><g clip-rule="nonzero" clip-path="url(#c562595ba4)"><path style=" stroke:none;fill-rule:nonzero;fill:#00c008;fill-opacity:1;" d="M 105.242188 191.234375 C 105.039062 192.792969 104.789062 194.058594 104.527344 195.164062 C 104.460938 195.441406 104.398438 195.710938 104.328125 195.96875 C 104.261719 196.230469 104.195312 196.480469 104.125 196.730469 C 104.054688 196.976562 103.984375 197.21875 103.914062 197.457031 C 103.847656 197.699219 103.765625 197.929688 103.695312 198.167969 C 102.949219 200.5 102 202.75 100.835938 204.894531 C 100.925781 204.78125 101.011719 204.667969 101.097656 204.554688 C 101.183594 204.441406 101.265625 204.328125 101.351562 204.214844 C 101.515625 203.988281 101.683594 203.761719 101.847656 203.527344 C 102.007812 203.289062 102.179688 203.050781 102.347656 202.785156 C 102.511719 202.523438 102.691406 202.25 102.863281 201.945312 C 103.203125 201.378906 103.75 200.171875 104.175781 199.082031 C 104.574219 198.054688 104.863281 197.210938 105.0625 196.613281 C 105.265625 196.019531 105.378906 195.679688 105.421875 195.652344 C 105.441406 195.636719 105.441406 195.699219 105.421875 195.847656 C 105.40625 196 105.359375 196.234375 105.289062 196.558594 C 105.144531 197.207031 104.886719 198.21875 104.417969 199.617188 C 104.308594 199.949219 104.257812 200.171875 104.230469 200.367188 C 104.203125 200.566406 104.199219 200.734375 104.148438 200.953125 C 104.269531 200.683594 104.371094 200.421875 104.472656 200.179688 C 104.574219 199.933594 104.664062 199.703125 104.746094 199.488281 C 104.828125 199.269531 104.90625 199.070312 104.972656 198.882812 C 105.042969 198.699219 105.101562 198.527344 105.15625 198.375 C 105.269531 198.070312 105.351562 197.828125 105.414062 197.660156 C 105.472656 197.492188 105.511719 197.398438 105.53125 197.382812 C 105.558594 197.347656 105.507812 197.632812 105.335938 198.269531 C 105.246094 198.585938 105.136719 198.992188 104.976562 199.484375 C 104.898438 199.730469 104.816406 200.003906 104.710938 200.292969 C 104.609375 200.585938 104.503906 200.902344 104.375 201.238281 C 103.351562 203.980469 102.144531 206.441406 100.792969 208.699219 C 99.433594 210.957031 97.929688 213.015625 96.238281 214.921875 C 95.214844 216.078125 94.136719 217.15625 93.023438 218.167969 C 91.90625 219.183594 90.746094 220.132812 89.53125 221.015625 C 88.320312 221.894531 87.058594 222.710938 85.742188 223.464844 C 84.421875 224.214844 83.050781 224.90625 81.613281 225.519531 C 81.324219 225.636719 80.992188 225.777344 80.625 225.910156 C 80.253906 226.042969 79.855469 226.1875 79.4375 226.316406 C 79.226562 226.382812 79.015625 226.453125 78.800781 226.519531 C 78.585938 226.582031 78.367188 226.644531 78.152344 226.707031 C 78.042969 226.738281 77.933594 226.765625 77.828125 226.796875 C 77.71875 226.828125 77.609375 226.855469 77.503906 226.882812 C 77.285156 226.9375 77.074219 226.996094 76.867188 227.050781 C 74.265625 227.695312 71.597656 228.085938 68.914062 228.210938 C 66.230469 228.339844 63.519531 228.207031 60.832031 227.800781 C 58.144531 227.394531 55.484375 226.714844 52.910156 225.761719 C 50.332031 224.808594 47.84375 223.585938 45.496094 222.109375 C 39.996094 218.664062 35.324219 213.933594 31.953125 208.40625 C 30.261719 205.648438 28.902344 202.683594 27.894531 199.613281 C 26.898438 196.535156 26.25 193.347656 25.996094 190.140625 C 25.894531 188.917969 25.851562 187.722656 25.867188 186.5625 C 25.878906 185.402344 25.9375 184.273438 26.042969 183.1875 C 26.152344 182.097656 26.300781 181.046875 26.484375 180.042969 C 26.53125 179.792969 26.582031 179.542969 26.632812 179.296875 C 26.65625 179.175781 26.683594 179.054688 26.707031 178.929688 C 26.734375 178.808594 26.761719 178.6875 26.789062 178.570312 C 26.847656 178.328125 26.898438 178.089844 26.957031 177.859375 C 27.019531 177.625 27.078125 177.394531 27.136719 177.164062 C 27.195312 176.9375 27.265625 176.710938 27.328125 176.488281 C 27.394531 176.269531 27.457031 176.046875 27.527344 175.832031 C 27.664062 175.402344 27.800781 174.980469 27.949219 174.574219 C 28.023438 174.371094 28.09375 174.171875 28.167969 173.976562 C 28.246094 173.78125 28.320312 173.585938 28.394531 173.394531 C 28.433594 173.300781 28.472656 173.203125 28.507812 173.109375 C 28.550781 173.015625 28.589844 172.925781 28.628906 172.832031 C 28.707031 172.648438 28.785156 172.46875 28.863281 172.289062 C 29.496094 170.871094 30.167969 169.664062 30.808594 168.664062 C 29.65625 171.144531 28.734375 173.785156 28.101562 176.480469 C 27.46875 179.179688 27.125 181.929688 27.074219 184.617188 C 27.011719 187.921875 27.378906 190.886719 28.058594 193.859375 C 28.398438 195.34375 28.816406 196.832031 29.351562 198.359375 C 29.882812 199.886719 30.503906 201.460938 31.285156 203.101562 C 31.753906 204.09375 32.367188 204.9375 32.898438 205.679688 C 32.976562 205.789062 33.050781 205.894531 33.121094 205.988281 C 33.195312 206.082031 33.265625 206.167969 33.332031 206.25 C 33.46875 206.417969 33.589844 206.5625 33.710938 206.699219 C 33.835938 206.835938 33.960938 206.96875 34.089844 207.113281 C 34.21875 207.253906 34.347656 207.410156 34.503906 207.585938 C 34.65625 207.761719 34.820312 207.964844 35.015625 208.203125 C 35.113281 208.324219 35.214844 208.453125 35.328125 208.59375 C 35.441406 208.734375 35.554688 208.886719 35.6875 209.050781 C 35.820312 209.214844 35.957031 209.390625 36.105469 209.582031 C 36.257812 209.769531 36.421875 209.972656 36.597656 210.195312 C 36.949219 210.632812 37.359375 211.128906 37.839844 211.691406 C 38.222656 211.914062 38.722656 212.285156 39.410156 212.835938 C 40.105469 213.378906 40.988281 214.109375 42.164062 215.003906 C 42.300781 215.109375 42.253906 215.007812 42.109375 214.816406 C 42.035156 214.71875 41.933594 214.597656 41.820312 214.46875 C 41.707031 214.339844 41.578125 214.195312 41.441406 214.058594 C 40.589844 213.1875 39.730469 212.234375 38.957031 211.261719 C 38.179688 210.292969 37.484375 209.304688 36.929688 208.382812 C 37.730469 209.515625 38.605469 210.613281 39.507812 211.644531 C 40.238281 212.472656 41.015625 213.308594 41.820312 214.082031 C 42.621094 214.855469 43.445312 215.566406 44.238281 216.167969 C 45.296875 216.957031 45.960938 217.28125 46.804688 217.730469 C 46.910156 217.789062 47.015625 217.847656 47.128906 217.910156 C 47.242188 217.96875 47.359375 218.03125 47.484375 218.097656 C 47.726562 218.234375 47.996094 218.382812 48.296875 218.550781 C 48.449219 218.636719 48.605469 218.726562 48.777344 218.820312 C 48.945312 218.914062 49.125 219.015625 49.316406 219.125 C 49.503906 219.234375 49.710938 219.34375 49.925781 219.464844 C 50.035156 219.527344 50.144531 219.585938 50.257812 219.652344 C 50.375 219.714844 50.492188 219.777344 50.617188 219.847656 C 50.832031 219.90625 51.0625 219.980469 51.300781 220.046875 C 51.539062 220.113281 51.777344 220.179688 52.003906 220.242188 C 52.460938 220.355469 52.859375 220.445312 53.078125 220.445312 C 53.199219 220.441406 53.09375 220.34375 52.851562 220.175781 C 52.613281 220.011719 52.234375 219.796875 51.808594 219.554688 C 51.5 219.390625 51.160156 219.199219 50.792969 219 C 50.609375 218.898438 50.425781 218.789062 50.234375 218.683594 C 50.140625 218.628906 50.042969 218.574219 49.949219 218.519531 C 49.851562 218.460938 49.757812 218.40625 49.660156 218.347656 C 48.886719 217.894531 48.117188 217.386719 47.472656 216.925781 C 46.417969 216.160156 45.65625 215.484375 44.820312 214.71875 C 44.992188 214.863281 45.148438 214.972656 45.28125 215.070312 C 45.414062 215.164062 45.527344 215.242188 45.621094 215.304688 C 45.808594 215.425781 45.929688 215.484375 46.003906 215.507812 C 46.152344 215.554688 46.128906 215.460938 46.160156 215.410156 C 46.191406 215.359375 46.277344 215.351562 46.640625 215.570312 C 47.015625 215.78125 47.65625 216.238281 48.875 217 C 49.046875 217.101562 49.292969 217.242188 49.570312 217.390625 C 49.851562 217.527344 50.15625 217.683594 50.441406 217.808594 C 50.726562 217.9375 50.984375 218.050781 51.167969 218.121094 C 51.351562 218.1875 51.457031 218.21875 51.429688 218.195312 C 51.070312 217.855469 51.046875 217.71875 51.265625 217.761719 C 51.375 217.78125 51.546875 217.835938 51.773438 217.925781 C 51.886719 217.972656 52.011719 218.027344 52.148438 218.085938 C 52.289062 218.140625 52.441406 218.207031 52.605469 218.277344 C 52.683594 218.3125 52.769531 218.351562 52.855469 218.390625 C 52.945312 218.425781 53.035156 218.464844 53.128906 218.503906 C 53.3125 218.582031 53.511719 218.667969 53.71875 218.753906 C 53.925781 218.839844 54.140625 218.925781 54.367188 219.019531 C 54.589844 219.109375 54.828125 219.195312 55.070312 219.289062 C 56.039062 219.652344 57.136719 220.015625 58.285156 220.3125 C 59.34375 220.589844 60.546875 220.847656 61.789062 221.035156 C 63.027344 221.222656 64.308594 221.339844 65.503906 221.367188 C 66.703125 221.398438 67.816406 221.34375 68.726562 221.234375 C 69.640625 221.128906 70.351562 220.964844 70.753906 220.792969 C 70.792969 220.777344 70.851562 220.757812 70.929688 220.738281 C 71.007812 220.714844 71.105469 220.691406 71.214844 220.664062 C 71.328125 220.640625 71.453125 220.613281 71.589844 220.585938 C 71.65625 220.570312 71.726562 220.558594 71.800781 220.542969 C 71.875 220.527344 71.949219 220.507812 72.027344 220.492188 C 72.339844 220.425781 72.679688 220.359375 73.027344 220.28125 C 73.203125 220.242188 73.375 220.207031 73.550781 220.171875 C 73.722656 220.132812 73.890625 220.09375 74.058594 220.054688 C 74.96875 219.855469 75.75 219.652344 76.273438 219.476562 C 76.535156 219.386719 76.734375 219.316406 76.851562 219.25 C 76.96875 219.183594 77.003906 219.132812 76.945312 219.09375 C 76.871094 219.050781 76.972656 218.96875 77.195312 218.867188 C 77.421875 218.769531 77.765625 218.632812 78.175781 218.488281 C 78.992188 218.191406 80.066406 217.800781 80.96875 217.4375 C 85.015625 215.808594 88.769531 213.371094 91.933594 210.328125 C 95.101562 207.28125 97.679688 203.632812 99.492188 199.667969 C 99.621094 199.375 99.769531 199.066406 99.902344 198.738281 C 99.96875 198.578125 100.039062 198.414062 100.105469 198.25 C 100.171875 198.085938 100.238281 197.921875 100.300781 197.761719 C 100.5625 197.113281 100.785156 196.492188 100.964844 196.03125 C 101.058594 195.804688 101.128906 195.613281 101.195312 195.480469 C 101.261719 195.347656 101.3125 195.269531 101.347656 195.269531 C 101.378906 195.265625 101.398438 195.335938 101.394531 195.496094 C 101.390625 195.65625 101.375 195.910156 101.3125 196.265625 C 101.261719 196.570312 101.414062 196.335938 101.621094 195.894531 C 101.71875 195.667969 101.839844 195.394531 101.953125 195.105469 C 102.0625 194.820312 102.175781 194.519531 102.269531 194.253906 C 102.609375 193.277344 102.933594 192.105469 103.1875 190.941406 C 103.449219 189.777344 103.640625 188.617188 103.792969 187.675781 C 103.875 187.183594 103.9375 186.777344 104 186.53125 C 104.0625 186.285156 104.121094 186.195312 104.175781 186.335938 C 104.199219 186.40625 104.222656 186.53125 104.242188 186.722656 C 104.261719 186.917969 104.289062 187.175781 104.292969 187.503906 C 104.296875 187.671875 104.300781 187.855469 104.300781 188.0625 C 104.304688 188.265625 104.292969 188.488281 104.289062 188.734375 C 104.285156 188.855469 104.28125 188.984375 104.277344 189.117188 C 104.269531 189.25 104.257812 189.386719 104.25 189.527344 C 104.242188 189.671875 104.230469 189.820312 104.222656 189.976562 C 104.210938 190.128906 104.191406 190.289062 104.179688 190.453125 C 104.027344 191.964844 104.0625 192.375 104.066406 193 C 104.0625 193.15625 104.054688 193.324219 104.042969 193.527344 C 104.03125 193.628906 104.023438 193.738281 104.007812 193.859375 C 103.992188 193.980469 103.972656 194.113281 103.949219 194.257812 C 103.925781 194.402344 103.902344 194.558594 103.867188 194.734375 C 103.832031 194.90625 103.789062 195.097656 103.742188 195.304688 C 103.71875 195.410156 103.691406 195.519531 103.664062 195.632812 C 103.632812 195.742188 103.601562 195.863281 103.570312 195.984375 C 103.5 196.230469 103.429688 196.496094 103.339844 196.78125 C 103.40625 196.8125 103.378906 197.242188 103.5625 196.796875 C 103.632812 196.628906 103.703125 196.453125 103.769531 196.269531 C 103.839844 196.089844 103.910156 195.898438 103.980469 195.707031 C 104.046875 195.507812 104.117188 195.304688 104.191406 195.09375 C 104.222656 194.988281 104.261719 194.882812 104.296875 194.773438 C 104.332031 194.664062 104.367188 194.550781 104.402344 194.4375 C 104.683594 193.527344 104.972656 192.476562 105.242188 191.234375 "/></g><g clip-rule="nonzero" clip-path="url(#0d820381a7)"><path style=" stroke:none;fill-rule:nonzero;fill:#00c008;fill-opacity:1;" d="M 53.667969 153.164062 C 53.847656 153.082031 54.023438 153.003906 54.203125 152.921875 C 54.382812 152.84375 54.5625 152.769531 54.742188 152.695312 C 55.101562 152.539062 55.46875 152.40625 55.84375 152.269531 C 56.035156 152.207031 56.230469 152.144531 56.425781 152.085938 C 56.527344 152.054688 56.625 152.023438 56.722656 151.996094 C 56.824219 151.96875 56.921875 151.941406 57.023438 151.914062 C 57.222656 151.863281 57.421875 151.804688 57.621094 151.757812 C 57.820312 151.707031 58.023438 151.660156 58.222656 151.609375 C 58.027344 151.671875 57.832031 151.738281 57.636719 151.800781 C 57.441406 151.867188 57.25 151.9375 57.050781 152.007812 C 56.953125 152.042969 56.855469 152.074219 56.753906 152.109375 C 56.65625 152.148438 56.558594 152.1875 56.457031 152.222656 C 56.257812 152.300781 56.054688 152.375 55.851562 152.457031 C 55.621094 152.527344 55.410156 152.589844 55.210938 152.648438 C 55.011719 152.707031 54.828125 152.773438 54.648438 152.828125 C 54.296875 152.941406 53.984375 153.050781 53.667969 153.164062 Z M 83.328125 151.203125 C 82.269531 150.722656 81.210938 150.242188 80.121094 149.832031 C 80.328125 149.867188 80.515625 149.859375 80.753906 149.945312 C 80.9375 150.015625 81.121094 150.082031 81.304688 150.152344 C 81.398438 150.1875 81.492188 150.222656 81.585938 150.257812 C 81.675781 150.292969 81.773438 150.332031 81.867188 150.371094 C 82.054688 150.449219 82.25 150.527344 82.449219 150.609375 C 82.648438 150.695312 82.855469 150.785156 83.066406 150.878906 C 83.914062 151.257812 84.882812 151.714844 86.070312 152.371094 C 85.980469 152.328125 85.890625 152.285156 85.804688 152.246094 C 85.71875 152.207031 85.632812 152.171875 85.550781 152.132812 C 85.390625 152.066406 85.242188 152 85.101562 151.9375 C 84.824219 151.816406 84.582031 151.722656 84.371094 151.636719 C 84.265625 151.59375 84.164062 151.554688 84.070312 151.515625 C 83.976562 151.476562 83.890625 151.441406 83.804688 151.410156 C 83.632812 151.339844 83.480469 151.273438 83.328125 151.203125 Z M 54.183594 152.734375 C 53.394531 153.035156 52.851562 153.164062 52.207031 153.394531 C 52.292969 153.351562 52.378906 153.304688 52.46875 153.261719 C 52.554688 153.21875 52.644531 153.171875 52.730469 153.128906 C 52.90625 153.042969 53.085938 152.957031 53.261719 152.871094 C 53.4375 152.785156 53.617188 152.707031 53.792969 152.628906 C 53.882812 152.589844 53.96875 152.550781 54.058594 152.515625 C 54.148438 152.476562 54.234375 152.445312 54.324219 152.410156 C 54.542969 152.332031 54.757812 152.25 54.996094 152.171875 C 55.234375 152.09375 55.492188 152.011719 55.796875 151.921875 C 56.402344 151.75 57.179688 151.523438 58.320312 151.273438 C 57.125 151.617188 56.28125 151.933594 55.640625 152.175781 C 54.996094 152.417969 54.558594 152.601562 54.183594 152.734375 Z M 40.5 162.804688 C 42.890625 160.222656 45.671875 157.941406 48.769531 156.078125 C 49.546875 155.613281 50.335938 155.167969 51.152344 154.757812 C 51.964844 154.347656 52.796875 153.964844 53.644531 153.609375 C 55.339844 152.90625 57.101562 152.3125 58.917969 151.859375 C 59.652344 151.671875 60.410156 151.527344 61.164062 151.394531 L 62.019531 151.265625 L 62.304688 151.226562 C 62.496094 151.203125 62.6875 151.175781 62.875 151.148438 C 63.066406 151.128906 63.257812 151.105469 63.449219 151.085938 C 64.394531 150.980469 64.882812 150.976562 65.148438 151 C 65.410156 151.023438 65.449219 151.074219 65.492188 151.125 C 65.53125 151.175781 65.582031 151.222656 65.867188 151.25 C 66.007812 151.261719 66.210938 151.269531 66.5 151.269531 C 66.644531 151.273438 66.808594 151.273438 67 151.273438 C 67.195312 151.269531 67.410156 151.265625 67.660156 151.269531 C 66.378906 151.320312 65.1875 151.460938 63.835938 151.613281 C 61.242188 151.917969 58.671875 152.507812 56.203125 153.378906 C 53.734375 154.261719 51.359375 155.40625 49.160156 156.816406 L 49.261719 156.863281 L 49.5 156.714844 L 49.742188 156.570312 L 50.230469 156.285156 C 50.558594 156.101562 50.882812 155.910156 51.21875 155.742188 C 51.882812 155.382812 52.566406 155.058594 53.253906 154.746094 C 54.632812 154.128906 56.054688 153.59375 57.523438 153.160156 C 58.984375 152.71875 60.492188 152.386719 62.035156 152.140625 C 62.804688 152.027344 63.582031 151.921875 64.371094 151.859375 C 64.765625 151.820312 65.160156 151.804688 65.558594 151.777344 C 65.757812 151.765625 65.953125 151.761719 66.15625 151.753906 L 66.453125 151.742188 C 66.554688 151.738281 66.65625 151.738281 66.753906 151.734375 C 63.847656 151.996094 60.828125 152.542969 57.769531 153.515625 C 54.710938 154.484375 51.609375 155.890625 48.632812 157.835938 C 46.554688 159.191406 44.628906 160.796875 42.902344 162.59375 L 42.738281 162.761719 L 42.578125 162.933594 L 42.261719 163.277344 C 42.050781 163.507812 41.847656 163.742188 41.640625 163.976562 C 41.441406 164.214844 41.238281 164.453125 41.039062 164.691406 L 40.601562 165.242188 L 40.460938 165.425781 C 39.699219 166.414062 38.992188 167.445312 38.34375 168.503906 L 38.480469 168.5625 C 40.253906 165.722656 42.453125 163.148438 44.972656 160.953125 L 44.945312 161.089844 C 42.546875 163.210938 40.445312 165.671875 38.710938 168.425781 C 36.980469 171.175781 35.617188 174.226562 34.722656 177.511719 C 35.402344 175.214844 36.3125 173.03125 37.414062 170.980469 C 38.515625 168.925781 39.816406 167.003906 41.28125 165.210938 C 42.75 163.421875 44.382812 161.761719 46.191406 160.257812 C 47.996094 158.75 49.960938 157.386719 52.09375 156.199219 C 52.761719 155.832031 53.457031 155.480469 54.171875 155.148438 C 54.890625 154.824219 55.628906 154.511719 56.390625 154.230469 C 57.914062 153.671875 59.511719 153.214844 61.148438 152.878906 C 61.964844 152.71875 62.792969 152.570312 63.625 152.472656 L 63.933594 152.429688 L 64.246094 152.398438 C 64.457031 152.375 64.664062 152.347656 64.871094 152.332031 C 65.082031 152.316406 65.289062 152.296875 65.496094 152.28125 C 65.703125 152.261719 65.914062 152.257812 66.121094 152.242188 C 66.539062 152.214844 66.953125 152.207031 67.371094 152.191406 C 67.578125 152.191406 67.785156 152.1875 67.992188 152.1875 L 68.300781 152.183594 L 68.609375 152.1875 C 69.433594 152.195312 70.25 152.242188 71.054688 152.300781 C 71.269531 152.320312 71.484375 152.335938 71.691406 152.355469 C 71.902344 152.375 72.109375 152.398438 72.3125 152.417969 C 72.417969 152.429688 72.519531 152.441406 72.617188 152.453125 C 72.71875 152.464844 72.820312 152.476562 72.917969 152.492188 C 73.117188 152.515625 73.3125 152.539062 73.503906 152.566406 C 73.886719 152.625 74.261719 152.671875 74.621094 152.738281 C 74.800781 152.765625 74.976562 152.796875 75.152344 152.824219 C 75.324219 152.855469 75.492188 152.886719 75.660156 152.917969 C 76.996094 153.167969 78.117188 153.433594 79 153.640625 C 79.113281 153.664062 79.21875 153.6875 79.320312 153.710938 C 79.425781 153.734375 79.523438 153.757812 79.617188 153.78125 C 79.808594 153.824219 79.984375 153.863281 80.144531 153.894531 C 80.460938 153.960938 80.71875 154.003906 80.90625 154.015625 C 81.28125 154.042969 81.390625 153.953125 81.1875 153.722656 C 81.050781 153.566406 81.300781 153.484375 80.769531 153.121094 C 80.703125 153.078125 80.621094 153.027344 80.527344 152.972656 C 80.433594 152.917969 80.324219 152.863281 80.199219 152.800781 C 80.074219 152.738281 79.929688 152.667969 79.769531 152.59375 C 79.605469 152.523438 79.421875 152.449219 79.214844 152.367188 C 78.394531 152.046875 77.210938 151.648438 75.496094 151.269531 C 75.199219 151.210938 74.878906 151.136719 74.542969 151.054688 C 74.375 151.015625 74.203125 150.976562 74.027344 150.9375 C 73.941406 150.917969 73.851562 150.894531 73.761719 150.875 C 73.671875 150.855469 73.582031 150.835938 73.492188 150.816406 C 73.3125 150.773438 73.128906 150.734375 72.949219 150.695312 C 72.765625 150.65625 72.578125 150.621094 72.394531 150.582031 C 72.027344 150.507812 71.660156 150.449219 71.304688 150.394531 C 73.359375 150.570312 75.449219 150.960938 77.347656 151.492188 C 78.296875 151.757812 79.199219 152.066406 80.027344 152.382812 C 80.234375 152.464844 80.4375 152.546875 80.636719 152.625 C 80.835938 152.710938 81.027344 152.796875 81.214844 152.878906 C 81.40625 152.957031 81.585938 153.042969 81.765625 153.128906 C 81.941406 153.210938 82.113281 153.292969 82.28125 153.378906 C 83.285156 153.882812 84.207031 154.386719 85.070312 154.886719 C 85.933594 155.386719 86.738281 155.882812 87.511719 156.382812 C 88.285156 156.890625 89.023438 157.402344 89.746094 157.941406 C 90.464844 158.476562 91.164062 159.042969 91.863281 159.652344 C 92.027344 159.796875 92.1875 159.9375 92.34375 160.074219 C 92.5 160.214844 92.652344 160.355469 92.804688 160.492188 C 92.960938 160.628906 93.109375 160.765625 93.257812 160.90625 C 93.40625 161.042969 93.554688 161.179688 93.699219 161.320312 C 94.28125 161.878906 94.839844 162.453125 95.386719 163.101562 C 96.230469 164.109375 96.863281 164.949219 97.359375 165.617188 C 97.859375 166.28125 98.21875 166.777344 98.492188 167.121094 C 98.628906 167.289062 98.738281 167.425781 98.832031 167.527344 C 98.925781 167.625 99.003906 167.691406 99.0625 167.726562 C 99.183594 167.792969 99.242188 167.742188 99.261719 167.609375 C 99.269531 167.546875 99.394531 167.65625 99.570312 167.867188 C 99.652344 167.972656 99.75 168.101562 99.851562 168.25 C 99.953125 168.398438 100.0625 168.558594 100.15625 168.734375 C 100.859375 169.964844 101.328125 170.925781 101.707031 171.738281 C 101.800781 171.945312 101.886719 172.140625 101.972656 172.328125 C 102.015625 172.421875 102.054688 172.515625 102.097656 172.605469 C 102.136719 172.699219 102.175781 172.789062 102.214844 172.878906 C 102.289062 173.058594 102.363281 173.230469 102.4375 173.40625 C 102.507812 173.578125 102.578125 173.75 102.648438 173.925781 C 102.929688 174.617188 103.203125 175.332031 103.519531 176.242188 C 103.835938 177.15625 104.195312 178.273438 104.5625 179.792969 C 104.210938 177.882812 103.746094 176.171875 103.203125 174.578125 C 102.667969 172.980469 102.046875 171.503906 101.359375 170.058594 C 101.25 169.828125 101.113281 169.535156 100.976562 169.230469 C 100.835938 168.925781 100.6875 168.605469 100.558594 168.320312 C 100.289062 167.75 100.089844 167.300781 100.144531 167.34375 C 100.238281 167.410156 100.378906 167.570312 100.570312 167.8125 C 100.664062 167.933594 100.773438 168.074219 100.882812 168.234375 C 100.996094 168.398438 101.117188 168.578125 101.246094 168.773438 C 101.761719 169.558594 102.375 170.628906 102.964844 171.867188 C 103.558594 173.105469 104.125 174.515625 104.570312 175.953125 C 105.019531 177.386719 105.359375 178.84375 105.570312 180.152344 C 105.730469 181.132812 105.820312 182.199219 105.902344 183.121094 C 106.007812 184.230469 106.101562 185.222656 106.144531 186.269531 C 106.160156 185.9375 106.183594 185.636719 106.203125 185.316406 C 106.21875 184.996094 106.226562 184.65625 106.222656 184.261719 L 106.195312 183.609375 L 106.183594 183.285156 L 106.164062 182.957031 L 106.125 182.304688 L 106.070312 181.65625 L 106.039062 181.328125 L 106.003906 181.003906 C 105.980469 180.785156 105.953125 180.566406 105.929688 180.351562 C 105.902344 180.132812 105.871094 179.914062 105.839844 179.699219 L 105.792969 179.371094 L 105.742188 179.046875 C 105.703125 178.828125 105.667969 178.609375 105.632812 178.394531 C 105.589844 178.175781 105.546875 177.957031 105.507812 177.742188 C 105.484375 177.632812 105.464844 177.523438 105.441406 177.414062 L 105.371094 177.089844 C 105.320312 176.871094 105.273438 176.652344 105.222656 176.433594 C 105.011719 175.566406 104.773438 174.695312 104.496094 173.828125 C 103.269531 169.996094 101.421875 166.339844 99.050781 163.042969 C 96.683594 159.746094 93.785156 156.808594 90.492188 154.382812 C 89.144531 153.382812 87.71875 152.480469 86.25 151.65625 C 85.511719 151.253906 84.765625 150.859375 84 150.503906 C 83.621094 150.320312 83.234375 150.152344 82.851562 149.980469 C 82.65625 149.894531 82.460938 149.816406 82.265625 149.734375 C 82.074219 149.65625 81.878906 149.570312 81.679688 149.496094 C 80.113281 148.875 78.503906 148.347656 76.867188 147.9375 C 76.660156 147.886719 76.457031 147.835938 76.25 147.785156 L 75.632812 147.648438 L 75.324219 147.578125 L 75.011719 147.515625 L 74.390625 147.394531 C 73.558594 147.246094 72.726562 147.109375 71.886719 147.015625 C 71.046875 146.910156 70.203125 146.84375 69.359375 146.792969 L 68.726562 146.765625 L 68.410156 146.75 L 68.09375 146.742188 L 67.460938 146.730469 C 67.25 146.730469 67.039062 146.734375 66.828125 146.734375 C 65.984375 146.738281 65.140625 146.777344 64.296875 146.832031 L 63.664062 146.882812 L 63.347656 146.910156 L 63.03125 146.945312 L 62.402344 147.011719 L 61.769531 147.09375 C 58.414062 147.546875 55.117188 148.445312 51.980469 149.742188 C 52.175781 149.683594 52.371094 149.625 52.578125 149.5625 C 52.679688 149.53125 52.78125 149.496094 52.886719 149.464844 C 52.992188 149.433594 53.097656 149.402344 53.203125 149.367188 C 53.417969 149.300781 53.636719 149.234375 53.859375 149.167969 C 54.082031 149.101562 54.308594 149.035156 54.539062 148.96875 C 55.457031 148.707031 56.414062 148.441406 57.355469 148.242188 C 57.59375 148.183594 57.816406 148.144531 58.035156 148.105469 C 58.25 148.066406 58.457031 148.027344 58.660156 147.996094 C 59.070312 147.9375 59.460938 147.878906 59.878906 147.832031 C 59.476562 147.921875 59.015625 148.058594 58.589844 148.171875 C 58.167969 148.296875 57.78125 148.402344 57.535156 148.460938 C 56.335938 148.730469 55.328125 149.058594 54.410156 149.402344 C 53.953125 149.570312 53.519531 149.757812 53.09375 149.941406 C 52.675781 150.132812 52.257812 150.316406 51.847656 150.527344 C 51.023438 150.929688 50.195312 151.378906 49.277344 151.894531 C 48.355469 152.414062 47.34375 153.003906 46.167969 153.742188 C 45.964844 153.871094 45.808594 153.972656 45.695312 154.050781 C 45.578125 154.128906 45.507812 154.183594 45.46875 154.21875 C 45.386719 154.289062 45.441406 154.277344 45.570312 154.222656 C 45.699219 154.160156 45.90625 154.066406 46.132812 153.960938 C 46.355469 153.855469 46.601562 153.738281 46.808594 153.660156 C 47.226562 153.492188 47.480469 153.425781 47.121094 153.71875 C 47.03125 153.792969 46.902344 153.886719 46.730469 154.011719 C 46.558594 154.136719 46.339844 154.292969 46.074219 154.476562 C 45.542969 154.859375 44.804688 155.371094 43.851562 156.113281 C 43.945312 156.074219 43.996094 156.09375 44.136719 155.988281 C 45.210938 155.195312 45.914062 154.777344 46.351562 154.550781 C 46.792969 154.320312 46.96875 154.277344 47.050781 154.304688 C 47.214844 154.351562 46.984375 154.648438 47.671875 154.28125 C 48.746094 153.714844 49.371094 153.449219 49.640625 153.347656 C 49.914062 153.25 49.839844 153.316406 49.546875 153.488281 C 49.40625 153.578125 49.207031 153.691406 48.972656 153.828125 C 48.738281 153.960938 48.472656 154.125 48.183594 154.296875 C 47.894531 154.46875 47.589844 154.664062 47.28125 154.855469 C 47.128906 154.957031 46.976562 155.058594 46.824219 155.160156 C 46.671875 155.257812 46.515625 155.359375 46.371094 155.464844 C 42.667969 158.007812 39.429688 161.234375 36.863281 164.921875 C 36.714844 165.484375 35.65625 167.113281 34.707031 168.972656 C 34.230469 169.898438 33.769531 170.878906 33.417969 171.769531 C 33.324219 171.992188 33.246094 172.210938 33.167969 172.417969 C 33.128906 172.523438 33.09375 172.625 33.058594 172.726562 C 33.023438 172.828125 32.992188 172.925781 32.960938 173.019531 C 32.898438 173.210938 32.84375 173.390625 32.792969 173.554688 C 32.746094 173.722656 32.710938 173.878906 32.679688 174.015625 C 32.941406 173.332031 33.234375 172.652344 33.539062 171.976562 C 33.851562 171.308594 34.171875 170.640625 34.519531 169.996094 C 34.863281 169.34375 35.234375 168.714844 35.609375 168.101562 C 35.703125 167.945312 35.800781 167.796875 35.894531 167.644531 C 35.992188 167.496094 36.085938 167.34375 36.1875 167.195312 C 36.386719 166.902344 36.578125 166.605469 36.785156 166.324219 C 36.90625 166.15625 37.019531 166 37.121094 165.863281 C 37.226562 165.726562 37.320312 165.609375 37.398438 165.511719 C 37.554688 165.320312 37.65625 165.210938 37.683594 165.214844 C 37.707031 165.214844 37.65625 165.324219 37.507812 165.566406 C 37.359375 165.808594 37.121094 166.1875 36.785156 166.734375 C 35.988281 168.039062 35.25 169.425781 34.722656 170.5625 C 36.320312 167.675781 38.285156 165.054688 40.542969 162.75 L 40.5 162.804688 "/></g><path style=" stroke:none;fill-rule:nonzero;fill:#00c008;fill-opacity:1;" d="M 41.011719 166.308594 C 41.515625 165.617188 42.082031 164.910156 42.707031 164.191406 C 43.332031 163.476562 44.015625 162.753906 44.757812 162.039062 C 46.246094 160.613281 47.976562 159.222656 49.917969 157.980469 C 50.890625 157.363281 51.910156 156.777344 52.980469 156.246094 C 54.046875 155.714844 55.15625 155.230469 56.300781 154.808594 C 57.445312 154.382812 58.621094 154.019531 59.816406 153.714844 C 61.015625 153.417969 62.230469 153.183594 63.457031 153.015625 C 65.089844 152.789062 66.6875 152.703125 68.257812 152.714844 C 69.824219 152.742188 71.367188 152.867188 72.898438 153.125 C 74.429688 153.371094 75.945312 153.746094 77.464844 154.242188 C 78.222656 154.492188 78.976562 154.777344 79.738281 155.09375 C 80.492188 155.417969 81.25 155.777344 82.007812 156.171875 C 83.113281 156.757812 83.871094 157.222656 84.363281 157.546875 C 84.488281 157.628906 84.597656 157.699219 84.6875 157.761719 C 84.78125 157.824219 84.855469 157.878906 84.917969 157.925781 C 85.042969 158.015625 85.109375 158.070312 85.125 158.097656 C 85.152344 158.144531 84.980469 158.070312 84.644531 157.90625 C 84.476562 157.828125 84.269531 157.730469 84.023438 157.617188 C 83.90625 157.558594 83.773438 157.5 83.632812 157.441406 C 83.492188 157.378906 83.347656 157.3125 83.191406 157.246094 C 82.382812 156.90625 81.804688 156.714844 81.472656 156.636719 C 81.140625 156.566406 81.054688 156.601562 81.210938 156.75 C 81.367188 156.898438 81.769531 157.160156 82.394531 157.5625 C 83.023438 157.964844 83.875 158.511719 84.910156 159.269531 C 85.960938 160.039062 86.402344 160.488281 86.472656 160.632812 C 86.539062 160.78125 86.21875 160.644531 85.671875 160.351562 C 83.433594 159.183594 80.875 158.144531 78.1875 157.480469 C 78.121094 157.464844 78.042969 157.445312 77.957031 157.417969 C 77.871094 157.394531 77.773438 157.367188 77.667969 157.335938 C 77.460938 157.277344 77.226562 157.203125 76.976562 157.132812 C 76.726562 157.058594 76.460938 156.980469 76.203125 156.910156 C 76.074219 156.875 75.945312 156.835938 75.820312 156.800781 C 75.691406 156.769531 75.570312 156.734375 75.453125 156.703125 C 75.074219 156.597656 74.695312 156.511719 74.320312 156.421875 C 73.941406 156.34375 73.566406 156.261719 73.195312 156.203125 C 72.820312 156.132812 72.449219 156.082031 72.078125 156.027344 C 71.890625 156.003906 71.707031 155.980469 71.523438 155.960938 C 71.335938 155.9375 71.152344 155.917969 70.96875 155.902344 C 69.496094 155.761719 68.039062 155.746094 66.589844 155.800781 C 63.59375 155.925781 60.542969 156.449219 57.5625 157.453125 C 54.585938 158.453125 51.675781 159.925781 49.027344 161.878906 C 51.433594 159.941406 54.164062 158.367188 57.066406 157.242188 C 59.972656 156.109375 63.050781 155.429688 66.15625 155.207031 C 68.40625 155.046875 70.636719 155.117188 72.824219 155.410156 C 75.015625 155.703125 77.171875 156.230469 79.269531 156.992188 L 79.328125 156.851562 C 77.628906 156.128906 75.851562 155.550781 74.066406 155.140625 C 73.980469 155.117188 73.894531 155.097656 73.804688 155.074219 C 73.714844 155.058594 73.625 155.039062 73.53125 155.019531 C 73.347656 154.980469 73.160156 154.9375 72.96875 154.902344 C 72.589844 154.835938 72.203125 154.761719 71.835938 154.707031 C 71.097656 154.585938 70.429688 154.503906 70.019531 154.425781 C 69.1875 154.28125 68.320312 154.183594 67.421875 154.140625 C 66.527344 154.101562 65.605469 154.113281 64.667969 154.1875 C 62.792969 154.324219 60.855469 154.707031 58.925781 155.308594 C 57.953125 155.613281 56.917969 155.984375 55.972656 156.390625 C 55.027344 156.796875 54.175781 157.230469 53.550781 157.601562 C 52.515625 158.226562 51.722656 158.742188 50.871094 159.269531 C 50.023438 159.800781 49.121094 160.339844 47.933594 161.109375 C 47.757812 161.21875 47.570312 161.355469 47.363281 161.503906 C 47.152344 161.652344 46.933594 161.828125 46.695312 162.015625 C 46.636719 162.066406 46.574219 162.113281 46.515625 162.160156 C 46.453125 162.210938 46.390625 162.265625 46.328125 162.316406 C 46.207031 162.421875 46.078125 162.53125 45.945312 162.640625 C 45.816406 162.757812 45.683594 162.875 45.546875 163 C 45.480469 163.058594 45.410156 163.121094 45.339844 163.183594 C 45.273438 163.25 45.203125 163.316406 45.132812 163.382812 C 44.996094 163.515625 44.847656 163.644531 44.707031 163.789062 C 44.566406 163.929688 44.421875 164.078125 44.273438 164.222656 C 44.128906 164.375 43.980469 164.53125 43.832031 164.6875 C 43.679688 164.839844 43.535156 165.007812 43.382812 165.171875 C 42.78125 165.839844 42.171875 166.566406 41.570312 167.351562 C 42.757812 165.6875 44.070312 164.1875 45.460938 162.847656 C 46.851562 161.511719 48.320312 160.332031 49.847656 159.3125 C 51.371094 158.289062 52.945312 157.414062 54.554688 156.6875 C 55.359375 156.320312 56.167969 155.988281 56.988281 155.691406 C 57.808594 155.398438 58.632812 155.136719 59.464844 154.90625 C 59.632812 154.859375 59.800781 154.816406 59.964844 154.769531 C 60.128906 154.722656 60.292969 154.6875 60.457031 154.640625 C 60.617188 154.601562 60.78125 154.554688 60.941406 154.515625 C 61.101562 154.476562 61.265625 154.4375 61.425781 154.394531 L 61.671875 154.335938 C 61.75 154.316406 61.832031 154.296875 61.914062 154.28125 C 62.078125 154.242188 62.242188 154.203125 62.410156 154.164062 C 62.574219 154.128906 62.742188 154.09375 62.914062 154.054688 C 63.085938 154.019531 63.257812 153.980469 63.433594 153.949219 C 63.609375 153.914062 63.789062 153.882812 63.972656 153.847656 C 64.152344 153.8125 64.339844 153.785156 64.53125 153.75 C 64.722656 153.71875 64.917969 153.683594 65.117188 153.660156 C 65.320312 153.632812 65.527344 153.601562 65.738281 153.574219 C 66.582031 153.46875 67.519531 153.382812 68.59375 153.351562 C 65.335938 153.222656 62.199219 153.5625 59.316406 154.28125 C 59.136719 154.324219 58.957031 154.375 58.777344 154.421875 C 58.601562 154.46875 58.421875 154.511719 58.246094 154.566406 C 57.894531 154.667969 57.542969 154.769531 57.199219 154.882812 C 56.507812 155.097656 55.835938 155.347656 55.175781 155.601562 C 53.867188 156.121094 52.617188 156.703125 51.453125 157.34375 C 50.285156 157.984375 49.1875 158.671875 48.171875 159.394531 C 47.15625 160.117188 46.214844 160.871094 45.347656 161.640625 C 43.613281 163.179688 42.183594 164.773438 41.011719 166.308594 "/><path style=" stroke:none;fill-rule:nonzero;fill:#00c008;fill-opacity:1;" d="M 40.5 162.804688 C 40.007812 163.414062 39.410156 164.144531 38.816406 164.929688 C 38.226562 165.71875 37.644531 166.5625 37.148438 167.363281 C 36.898438 167.761719 36.679688 168.15625 36.480469 168.519531 C 36.382812 168.699219 36.292969 168.878906 36.210938 169.046875 C 36.167969 169.128906 36.128906 169.210938 36.089844 169.289062 C 36.054688 169.371094 36.019531 169.449219 35.988281 169.523438 C 35.726562 170.125 35.609375 170.566406 35.679688 170.730469 C 35.683594 170.742188 35.652344 170.816406 35.59375 170.945312 C 35.539062 171.074219 35.460938 171.257812 35.363281 171.472656 C 35.316406 171.582031 35.261719 171.695312 35.207031 171.820312 C 35.152344 171.945312 35.097656 172.074219 35.035156 172.210938 C 34.980469 172.34375 34.914062 172.480469 34.855469 172.625 C 34.792969 172.765625 34.734375 172.910156 34.671875 173.054688 C 34.171875 174.207031 33.722656 175.386719 33.558594 175.375 C 33.558594 175.378906 33.570312 175.421875 33.570312 175.421875 C 33.308594 175.730469 33.296875 175.445312 33.511719 174.648438 C 33.726562 173.851562 34.199219 172.550781 35.011719 170.902344 C 36.464844 167.976562 38.328125 165.210938 40.535156 162.761719 C 40.542969 162.75 40.5 162.804688 40.5 162.804688 "/><path style=" stroke:none;fill-rule:nonzero;fill:#00c008;fill-opacity:1;" d="M 32.738281 186.96875 C 32.738281 186.730469 32.738281 186.496094 32.738281 186.269531 C 32.742188 186.042969 32.75 185.820312 32.753906 185.605469 C 32.757812 185.390625 32.769531 185.179688 32.777344 184.976562 C 32.789062 184.769531 32.792969 184.570312 32.808594 184.375 C 32.839844 183.988281 32.859375 183.621094 32.894531 183.273438 C 32.914062 183.097656 32.929688 182.929688 32.945312 182.761719 C 32.964844 182.597656 32.984375 182.4375 33.003906 182.277344 C 33.160156 181.019531 33.355469 180.019531 33.574219 179.132812 C 33.636719 178.875 33.703125 178.660156 33.765625 178.472656 C 33.832031 178.285156 33.898438 178.125 33.964844 177.972656 C 34.089844 177.675781 34.226562 177.425781 34.363281 177.105469 C 34.289062 177.410156 34.203125 177.738281 34.132812 178.078125 C 34.097656 178.246094 34.058594 178.414062 34.027344 178.582031 C 33.992188 178.753906 33.960938 178.921875 33.929688 179.085938 C 33.804688 179.742188 33.703125 180.34375 33.625 180.730469 C 33.597656 180.851562 33.570312 180.96875 33.546875 181.085938 C 33.523438 181.203125 33.5 181.320312 33.476562 181.433594 C 33.433594 181.664062 33.382812 181.894531 33.34375 182.121094 C 33.300781 182.351562 33.261719 182.582031 33.21875 182.8125 C 33.179688 183.046875 33.140625 183.28125 33.101562 183.523438 C 32.953125 184.496094 32.816406 185.578125 32.738281 186.96875 "/><path style=" stroke:none;fill-rule:nonzero;fill:#00c008;fill-opacity:1;" d="M 32.597656 194.800781 C 32.816406 195.789062 33.070312 196.769531 33.371094 197.734375 C 33.671875 198.699219 34.011719 199.65625 34.394531 200.59375 C 35.152344 202.476562 36.082031 204.289062 37.15625 206.019531 L 36.875 205.746094 L 36.605469 205.464844 C 36.089844 204.589844 35.613281 203.699219 35.175781 202.789062 C 34.742188 201.878906 34.34375 200.949219 33.984375 200.007812 C 33.261719 198.128906 32.714844 196.1875 32.320312 194.21875 C 32.40625 194.417969 32.507812 194.609375 32.597656 194.800781 "/><path style=" stroke:none;fill-rule:nonzero;fill:#00c008;fill-opacity:1;" d="M 33.570312 175.421875 C 33.570312 175.421875 33.558594 175.378906 33.558594 175.375 C 33.128906 176.8125 32.804688 178.214844 32.535156 179.496094 C 32.269531 180.777344 32.0625 181.9375 31.859375 182.898438 C 31.855469 182.914062 31.855469 182.863281 31.855469 182.773438 C 31.851562 182.730469 31.851562 182.675781 31.851562 182.617188 C 31.855469 182.558594 31.855469 182.492188 31.859375 182.425781 C 31.867188 182.164062 31.882812 181.867188 31.894531 181.785156 C 32.257812 179.574219 32.820312 177.46875 33.570312 175.421875 "/><path style=" stroke:none;fill-rule:nonzero;fill:#00c008;fill-opacity:1;" d="M 38.050781 160.117188 C 38.988281 159.113281 39.976562 158.15625 41.007812 157.257812 C 42.042969 156.359375 43.121094 155.515625 44.238281 154.730469 L 44.085938 154.949219 C 41.777344 156.628906 39.648438 158.558594 37.746094 160.699219 C 37.847656 160.503906 37.949219 160.3125 38.050781 160.117188 "/><path style=" stroke:none;fill-rule:nonzero;fill:#00c008;fill-opacity:1;" d="M 56.46875 153.078125 C 55.300781 153.460938 54.152344 153.90625 53.03125 154.414062 C 51.910156 154.917969 50.816406 155.488281 49.753906 156.109375 L 49.730469 156.050781 C 50.792969 155.429688 51.886719 154.859375 53.011719 154.355469 C 54.132812 153.847656 55.285156 153.402344 56.457031 153.019531 L 56.46875 153.078125 "/><path style=" stroke:none;fill-rule:nonzero;fill:#00c008;fill-opacity:1;" d="M 41.515625 209.644531 C 41.34375 209.433594 41.15625 209.21875 40.972656 208.996094 C 40.792969 208.769531 40.605469 208.550781 40.433594 208.328125 C 40.261719 208.101562 40.09375 207.886719 39.941406 207.679688 C 39.792969 207.46875 39.65625 207.273438 39.539062 207.101562 C 39.28125 206.695312 39.085938 206.367188 38.925781 206.050781 C 38.84375 205.894531 38.765625 205.742188 38.6875 205.589844 C 38.609375 205.4375 38.535156 205.28125 38.449219 205.117188 C 39.039062 206.035156 39.773438 207.015625 40.320312 207.757812 C 41.058594 208.757812 41.667969 209.574219 42.394531 210.425781 C 42.242188 210.300781 42.097656 210.167969 41.953125 210.039062 C 41.808594 209.90625 41.660156 209.777344 41.515625 209.644531 "/><path style=" stroke:none;fill-rule:nonzero;fill:#00c008;fill-opacity:1;" d="M 49.65625 158.8125 C 49.878906 158.660156 50.109375 158.519531 50.339844 158.371094 C 50.570312 158.230469 50.804688 158.09375 51.035156 157.953125 C 51.234375 157.839844 51.441406 157.742188 51.644531 157.632812 C 51.175781 157.894531 50.710938 158.167969 50.257812 158.449219 C 50.058594 158.574219 49.851562 158.683594 49.65625 158.8125 "/><path style=" stroke:none;fill-rule:nonzero;fill:#00c008;fill-opacity:1;" d="M 39.285156 171.929688 C 39.171875 172.167969 39.066406 172.394531 38.960938 172.609375 C 38.863281 172.824219 38.769531 173.035156 38.671875 173.246094 C 38.59375 173.425781 38.503906 173.609375 38.417969 173.792969 C 38.503906 173.589844 38.578125 173.378906 38.675781 173.179688 C 38.769531 172.980469 38.863281 172.78125 38.960938 172.574219 C 39.0625 172.371094 39.171875 172.15625 39.285156 171.929688 "/><path style=" stroke:none;fill-rule:nonzero;fill:#00c008;fill-opacity:1;" d="M 101.972656 182.328125 C 101.9375 182.121094 101.90625 181.917969 101.863281 181.710938 C 101.820312 181.507812 101.78125 181.300781 101.753906 181.09375 C 101.671875 180.59375 101.621094 180.082031 101.539062 179.578125 C 101.589844 179.78125 101.648438 179.984375 101.695312 180.191406 C 101.742188 180.398438 101.785156 180.605469 101.820312 180.820312 C 101.863281 181.066406 101.882812 181.316406 101.910156 181.570312 C 101.941406 181.820312 101.953125 182.074219 101.972656 182.328125 "/><g clip-rule="nonzero" clip-path="url(#b30cae7bab)"><path style=" stroke:none;fill-rule:nonzero;fill:#00c008;fill-opacity:1;" d="M 50.480469 168.03125 C 49.855469 168.546875 49.28125 169.105469 48.753906 169.699219 C 49.007812 169.4375 49.269531 169.175781 49.539062 168.914062 C 49.777344 168.679688 50.089844 168.386719 50.480469 168.03125 M 47.9375 168.523438 C 47.511719 168.902344 47.136719 169.261719 46.808594 169.605469 C 46.480469 169.945312 46.1875 170.277344 45.925781 170.597656 C 46.511719 169.933594 47.183594 169.242188 47.9375 168.523438 M 91.976562 180.851562 L 91.964844 180.960938 L 91.964844 181.074219 L 91.96875 181.1875 L 91.984375 181.304688 L 92.011719 181.417969 L 92.050781 181.539062 L 92.101562 181.660156 L 92.167969 181.785156 L 92.25 181.910156 L 92.34375 182.042969 L 92.460938 182.179688 L 92.589844 182.316406 C 92.417969 181.882812 92.210938 181.394531 91.976562 180.851562 M 67.363281 160.410156 L 67.011719 160.414062 C 59.625 160.734375 53.273438 163.429688 47.949219 168.507812 C 53.539062 163.609375 59.8125 161.085938 66.769531 160.941406 C 70.394531 160.96875 73.480469 161.515625 76.03125 162.582031 C 79.84375 164.109375 82.890625 165.945312 85.175781 168.089844 C 86.835938 169.648438 88.070312 171.027344 88.886719 172.238281 C 86.839844 169.359375 83.75 166.871094 79.613281 164.777344 C 75.117188 162.710938 70.722656 161.679688 66.441406 161.679688 C 60.644531 161.566406 55.328125 163.679688 50.488281 168.023438 C 55.488281 164.035156 61.074219 162.265625 67.25 162.714844 C 74.425781 163.367188 80.449219 165.9375 85.320312 170.425781 C 87.972656 172.933594 90.191406 176.40625 91.976562 180.847656 C 92.320312 179.71875 92.417969 179.042969 92.269531 178.8125 C 92.980469 180.941406 93.398438 183.148438 93.53125 185.433594 C 94.011719 191.902344 91.988281 197.996094 87.464844 203.71875 C 94.890625 195.328125 96.394531 185.980469 91.972656 175.667969 C 89.566406 170.746094 86.410156 167.144531 82.496094 164.875 C 77.601562 161.945312 72.558594 160.457031 67.363281 160.410156 M 87.453125 203.726562 L 87.269531 203.929688 C 86.703125 204.539062 86.101562 205.152344 85.457031 205.777344 L 85.894531 205.425781 L 85.988281 205.347656 C 86.015625 205.328125 86.125 205.222656 86.320312 205.03125 C 86.480469 204.871094 86.65625 204.675781 86.847656 204.457031 L 87.144531 204.109375 L 87.453125 203.726562 M 48.746094 169.707031 L 48.285156 170.191406 C 43.0625 176.050781 40.730469 182.625 41.300781 189.917969 C 40.460938 186.78125 40.503906 183.503906 41.433594 180.078125 C 42.328125 176.457031 43.824219 173.296875 45.917969 170.605469 C 42.449219 174.585938 40.546875 179.683594 40.207031 185.898438 C 40.199219 187.019531 40.382812 188.421875 40.769531 190.109375 C 42.121094 194.914062 42.914062 197.464844 43.144531 197.757812 C 44.636719 201.15625 46.394531 203.796875 48.414062 205.675781 C 51 208.09375 53.84375 209.90625 56.949219 211.117188 C 60.082031 212.417969 63.050781 213.042969 65.859375 212.992188 C 69.871094 212.90625 73.640625 212.308594 77.171875 211.199219 C 79.734375 210.285156 82.496094 208.476562 85.449219 205.78125 C 82.394531 208.21875 79.761719 209.777344 77.5625 210.460938 C 73.441406 211.589844 69.640625 212.128906 66.15625 212.078125 C 63.96875 212.226562 60.855469 211.433594 56.816406 209.695312 C 53.863281 208.40625 51.425781 206.8125 49.503906 204.914062 C 47.96875 203.371094 46.800781 201.933594 46 200.597656 C 48.382812 203.457031 51.832031 206.183594 56.359375 208.777344 C 58.535156 209.988281 60.699219 210.859375 62.855469 211.382812 C 63.410156 211.511719 63.726562 211.554688 63.796875 211.519531 C 63.835938 211.507812 63.832031 211.480469 63.785156 211.4375 C 63.882812 211.503906 64.023438 211.441406 64.214844 211.25 C 64.375 211.058594 64.480469 210.867188 64.527344 210.679688 C 61.671875 210.613281 57.273438 208.664062 51.328125 204.832031 C 47.9375 202.300781 45.382812 199.328125 43.667969 195.917969 C 42.046875 192.039062 41.695312 187.429688 42.621094 182.097656 C 43.296875 177.957031 45.339844 173.828125 48.746094 169.707031 "/></g></g></svg>