<svg xmlns="http://www.w3.org/2000/svg" xmlns:xlink="http://www.w3.org/1999/xlink" width="500" zoomAndPan="magnify" viewBox="0 0 375 374.999991" height="500" preserveAspectRatio="xMidYMid meet" version="1.2"><defs><clipPath id="d08ee7f749"><path d="M 39.644531 118.632812 L 335 118.632812 L 335 339.65625 L 39.644531 339.65625 Z M 39.644531 118.632812 "/></clipPath><clipPath id="9befb216e4"><path d="M 64.898438 37.5 L 337.382812 37.5 L 337.382812 184.1875 L 64.898438 184.1875 Z M 64.898438 37.5 "/></clipPath><clipPath id="50714aaac5"><path d="M 92.160156 88.125 L 294 88.125 L 294 283.125 L 92.160156 283.125 Z M 92.160156 88.125 "/></clipPath></defs><g id="8a14bf5eb7"><g clip-rule="nonzero" clip-path="url(#d08ee7f749)"><path style=" stroke:none;fill-rule:nonzero;fill:#00c008;fill-opacity:1;" d="M 333.832031 202.4375 C 333.085938 208.21875 332.152344 212.898438 331.191406 217.003906 C 330.9375 218.03125 330.71875 219.027344 330.457031 219.988281 C 330.203125 220.949219 329.953125 221.886719 329.703125 222.804688 C 329.4375 223.71875 329.179688 224.613281 328.917969 225.5 C 328.671875 226.390625 328.371094 227.253906 328.101562 228.128906 C 325.347656 236.777344 321.828125 245.113281 317.511719 253.066406 C 317.835938 252.640625 318.160156 252.21875 318.480469 251.800781 C 318.792969 251.378906 319.101562 250.957031 319.410156 250.539062 C 320.03125 249.703125 320.652344 248.871094 321.253906 247.992188 C 321.855469 247.113281 322.492188 246.222656 323.105469 245.246094 C 323.71875 244.277344 324.382812 243.257812 325.019531 242.125 C 326.285156 240.027344 328.316406 235.554688 329.878906 231.519531 C 331.359375 227.710938 332.433594 224.578125 333.171875 222.375 C 333.917969 220.175781 334.34375 218.910156 334.5 218.804688 C 334.578125 218.75 334.582031 218.988281 334.507812 219.542969 C 334.441406 220.097656 334.273438 220.960938 334.003906 222.160156 C 333.484375 224.566406 332.527344 228.316406 330.78125 233.511719 C 330.378906 234.738281 330.183594 235.5625 330.089844 236.292969 C 329.984375 237.019531 329.96875 237.648438 329.789062 238.449219 C 330.234375 237.449219 330.605469 236.484375 330.984375 235.582031 C 331.363281 234.679688 331.6875 233.824219 331.996094 233.019531 C 332.300781 232.21875 332.597656 231.480469 332.84375 230.789062 C 333.09375 230.097656 333.320312 229.46875 333.523438 228.902344 C 333.945312 227.769531 334.246094 226.875 334.472656 226.253906 C 334.699219 225.632812 334.84375 225.28125 334.902344 225.21875 C 335.015625 225.101562 334.816406 226.148438 334.1875 228.503906 C 333.859375 229.675781 333.453125 231.1875 332.859375 233.015625 C 332.566406 233.929688 332.257812 234.9375 331.871094 236.015625 C 331.496094 237.097656 331.101562 238.273438 330.621094 239.519531 C 326.832031 249.675781 322.363281 258.796875 317.347656 267.167969 C 312.316406 275.539062 306.730469 283.167969 300.46875 290.222656 C 296.671875 294.511719 292.683594 298.503906 288.550781 302.265625 C 284.40625 306.019531 280.109375 309.539062 275.613281 312.804688 C 271.121094 316.066406 266.445312 319.09375 261.5625 321.886719 C 256.679688 324.671875 251.597656 327.234375 246.269531 329.503906 C 245.199219 329.945312 243.960938 330.457031 242.597656 330.953125 C 241.226562 331.441406 239.753906 331.984375 238.203125 332.460938 C 237.425781 332.707031 236.640625 332.957031 235.84375 333.207031 C 235.046875 333.4375 234.242188 333.667969 233.4375 333.898438 C 233.035156 334.015625 232.632812 334.128906 232.234375 334.242188 C 231.832031 334.347656 231.429688 334.453125 231.03125 334.558594 C 230.230469 334.761719 229.441406 334.972656 228.667969 335.171875 C 219.039062 337.570312 209.148438 339.015625 199.195312 339.484375 C 189.25 339.953125 179.210938 339.464844 169.25 337.957031 C 159.292969 336.453125 149.429688 333.929688 139.882812 330.402344 C 130.335938 326.875 121.109375 322.339844 112.40625 316.871094 C 92.023438 304.097656 74.714844 286.5625 62.210938 266.078125 C 55.941406 255.851562 50.90625 244.871094 47.171875 233.484375 C 43.480469 222.085938 41.078125 210.273438 40.132812 198.382812 C 39.761719 193.851562 39.601562 189.421875 39.65625 185.121094 C 39.707031 180.820312 39.921875 176.644531 40.316406 172.609375 C 40.722656 168.574219 41.269531 164.683594 41.949219 160.957031 C 42.121094 160.027344 42.3125 159.109375 42.492188 158.195312 C 42.589844 157.742188 42.679688 157.289062 42.773438 156.835938 C 42.875 156.386719 42.976562 155.941406 43.078125 155.496094 C 43.285156 154.609375 43.480469 153.726562 43.699219 152.859375 C 43.925781 151.996094 44.148438 151.140625 44.367188 150.292969 C 44.585938 149.441406 44.839844 148.613281 45.078125 147.789062 C 45.320312 146.96875 45.542969 146.152344 45.808594 145.355469 C 46.324219 143.757812 46.820312 142.199219 47.375 140.695312 C 47.648438 139.945312 47.90625 139.199219 48.1875 138.46875 C 48.472656 137.746094 48.753906 137.027344 49.03125 136.320312 C 49.171875 135.964844 49.3125 135.613281 49.453125 135.265625 C 49.597656 134.921875 49.746094 134.578125 49.890625 134.238281 C 50.183594 133.558594 50.476562 132.886719 50.761719 132.226562 C 53.105469 126.960938 55.59375 122.484375 57.972656 118.78125 C 53.695312 127.976562 50.28125 137.757812 47.9375 147.757812 C 45.589844 157.753906 44.324219 167.957031 44.125 177.917969 C 43.898438 190.152344 45.261719 201.148438 47.773438 212.160156 C 49.046875 217.660156 50.597656 223.179688 52.566406 228.839844 C 54.535156 234.5 56.847656 240.332031 59.734375 246.414062 C 61.476562 250.097656 63.75 253.222656 65.714844 255.96875 C 66.007812 256.382812 66.28125 256.765625 66.550781 257.117188 C 66.820312 257.464844 67.078125 257.789062 67.328125 258.09375 C 67.824219 258.703125 68.285156 259.238281 68.734375 259.753906 C 69.199219 260.261719 69.652344 260.757812 70.128906 261.285156 C 70.605469 261.8125 71.09375 262.386719 71.664062 263.035156 C 72.234375 263.6875 72.84375 264.441406 73.5625 265.332031 C 73.925781 265.773438 74.308594 266.25 74.722656 266.773438 C 75.136719 267.292969 75.570312 267.863281 76.058594 268.464844 C 76.542969 269.070312 77.058594 269.722656 77.609375 270.433594 C 78.171875 271.136719 78.777344 271.890625 79.429688 272.703125 C 80.738281 274.328125 82.25 276.167969 84.035156 278.257812 C 85.445312 279.085938 87.300781 280.453125 89.855469 282.492188 C 92.429688 284.511719 95.699219 287.210938 100.066406 290.539062 C 100.5625 290.917969 100.394531 290.546875 99.851562 289.832031 C 99.578125 289.476562 99.210938 289.03125 98.785156 288.550781 C 98.363281 288.066406 97.886719 287.535156 97.382812 287.023438 C 94.226562 283.796875 91.042969 280.269531 88.167969 276.667969 C 85.285156 273.074219 82.710938 269.40625 80.664062 265.996094 C 83.628906 270.191406 86.867188 274.265625 90.21875 278.082031 C 92.914062 281.15625 95.808594 284.242188 98.777344 287.109375 C 101.75 289.980469 104.804688 292.621094 107.75 294.84375 C 111.675781 297.769531 114.132812 298.964844 117.253906 300.640625 C 117.640625 300.851562 118.042969 301.070312 118.457031 301.296875 C 118.878906 301.519531 119.3125 301.75 119.769531 301.996094 C 120.679688 302.5 121.671875 303.050781 122.789062 303.671875 C 123.347656 303.988281 123.9375 304.324219 124.5625 304.679688 C 125.195312 305.027344 125.859375 305.398438 126.566406 305.800781 C 127.265625 306.210938 128.027344 306.617188 128.828125 307.066406 C 129.226562 307.289062 129.636719 307.519531 130.0625 307.757812 C 130.488281 307.996094 130.929688 308.226562 131.382812 308.476562 C 132.183594 308.699219 133.039062 308.980469 133.921875 309.222656 C 134.800781 309.46875 135.691406 309.71875 136.53125 309.949219 C 138.222656 310.371094 139.703125 310.699219 140.511719 310.691406 C 140.957031 310.683594 140.5625 310.3125 139.675781 309.699219 C 138.785156 309.089844 137.378906 308.289062 135.800781 307.402344 C 134.660156 306.792969 133.394531 306.078125 132.039062 305.335938 C 131.359375 304.96875 130.675781 304.558594 129.972656 304.160156 C 129.621094 303.960938 129.265625 303.757812 128.90625 303.554688 C 128.554688 303.34375 128.199219 303.132812 127.84375 302.921875 C 124.980469 301.238281 122.121094 299.367188 119.726562 297.648438 C 115.820312 294.8125 113.003906 292.316406 109.898438 289.480469 C 110.542969 290.003906 111.121094 290.414062 111.613281 290.769531 C 112.105469 291.125 112.515625 291.410156 112.867188 291.640625 C 113.566406 292.09375 114.011719 292.308594 114.289062 292.398438 C 114.84375 292.578125 114.753906 292.222656 114.871094 292.035156 C 114.984375 291.839844 115.296875 291.820312 116.652344 292.632812 C 118.035156 293.410156 120.40625 295.101562 124.933594 297.925781 C 125.5625 298.308594 126.484375 298.828125 127.507812 299.371094 C 128.546875 299.886719 129.675781 300.457031 130.734375 300.929688 C 131.792969 301.398438 132.753906 301.816406 133.429688 302.078125 C 134.109375 302.332031 134.496094 302.449219 134.394531 302.351562 C 133.070312 301.09375 132.984375 300.597656 133.789062 300.75 C 134.191406 300.816406 134.832031 301.027344 135.667969 301.359375 C 136.085938 301.527344 136.550781 301.730469 137.066406 301.949219 C 137.582031 302.160156 138.148438 302.402344 138.75 302.664062 C 139.054688 302.800781 139.367188 302.9375 139.6875 303.078125 C 140.011719 303.214844 140.347656 303.359375 140.695312 303.503906 C 141.382812 303.796875 142.113281 304.109375 142.878906 304.433594 C 143.644531 304.746094 144.449219 305.070312 145.285156 305.410156 C 146.117188 305.75 146.996094 306.066406 147.886719 306.414062 C 151.484375 307.765625 155.550781 309.105469 159.800781 310.207031 C 163.722656 311.230469 168.183594 312.191406 172.789062 312.886719 C 177.390625 313.582031 182.128906 314.011719 186.5625 314.117188 C 191 314.230469 195.125 314.023438 198.507812 313.621094 C 201.890625 313.230469 204.523438 312.617188 206.015625 311.984375 C 206.160156 311.921875 206.386719 311.855469 206.675781 311.78125 C 206.964844 311.699219 207.320312 311.609375 207.730469 311.515625 C 208.140625 311.421875 208.605469 311.316406 209.109375 311.214844 C 209.363281 311.164062 209.628906 311.113281 209.902344 311.054688 C 210.171875 310.996094 210.453125 310.933594 210.738281 310.871094 C 211.890625 310.625 213.160156 310.382812 214.445312 310.089844 C 215.089844 309.949219 215.738281 309.8125 216.378906 309.675781 C 217.019531 309.535156 217.652344 309.390625 218.265625 309.253906 C 221.632812 308.507812 224.53125 307.761719 226.472656 307.109375 C 227.441406 306.78125 228.179688 306.511719 228.613281 306.265625 C 229.046875 306.019531 229.179688 305.828125 228.960938 305.691406 C 228.683594 305.527344 229.066406 305.226562 229.898438 304.847656 C 230.734375 304.480469 232.003906 303.980469 233.523438 303.445312 C 236.554688 302.34375 240.53125 300.902344 243.875 299.542969 C 258.878906 293.515625 272.78125 284.484375 284.511719 273.195312 C 296.257812 261.917969 305.8125 248.394531 312.53125 233.699219 C 313.011719 232.613281 313.554688 231.457031 314.042969 230.253906 C 314.296875 229.652344 314.550781 229.046875 314.808594 228.445312 C 315.050781 227.835938 315.289062 227.226562 315.527344 226.625 C 316.488281 224.226562 317.324219 221.925781 317.992188 220.222656 C 318.335938 219.371094 318.601562 218.660156 318.84375 218.167969 C 319.078125 217.675781 319.269531 217.394531 319.398438 217.382812 C 319.523438 217.375 319.59375 217.636719 319.582031 218.234375 C 319.570312 218.832031 319.5 219.765625 319.277344 221.085938 C 319.09375 222.210938 319.644531 221.347656 320.417969 219.703125 C 320.785156 218.875 321.230469 217.855469 321.648438 216.789062 C 322.050781 215.722656 322.472656 214.617188 322.816406 213.628906 C 324.085938 210.003906 325.277344 205.664062 326.226562 201.347656 C 327.1875 197.03125 327.898438 192.738281 328.464844 189.242188 C 328.777344 187.417969 329 185.917969 329.238281 185.007812 C 329.472656 184.09375 329.6875 183.765625 329.878906 184.28125 C 329.972656 184.539062 330.058594 185.007812 330.140625 185.71875 C 330.210938 186.429688 330.304688 187.386719 330.320312 188.617188 C 330.335938 189.234375 330.347656 189.917969 330.351562 190.675781 C 330.359375 191.433594 330.324219 192.261719 330.304688 193.167969 C 330.289062 193.621094 330.273438 194.09375 330.257812 194.582031 C 330.226562 195.074219 330.195312 195.585938 330.164062 196.117188 C 330.128906 196.648438 330.089844 197.199219 330.054688 197.769531 C 330.015625 198.339844 329.949219 198.929688 329.894531 199.542969 C 329.332031 205.148438 329.460938 206.664062 329.476562 208.980469 C 329.46875 209.558594 329.445312 210.183594 329.386719 210.9375 C 329.359375 211.3125 329.328125 211.722656 329.269531 212.167969 C 329.210938 212.613281 329.140625 213.101562 329.050781 213.640625 C 328.964844 214.175781 328.867188 214.761719 328.742188 215.410156 C 328.609375 216.050781 328.453125 216.753906 328.277344 217.523438 C 328.1875 217.910156 328.089844 218.3125 327.988281 218.730469 C 327.878906 219.148438 327.761719 219.585938 327.636719 220.039062 C 327.386719 220.949219 327.128906 221.941406 326.785156 223 C 327.039062 223.109375 326.933594 224.695312 327.613281 223.054688 C 327.878906 222.429688 328.128906 221.78125 328.382812 221.105469 C 328.636719 220.425781 328.898438 219.730469 329.167969 219.007812 C 329.414062 218.277344 329.671875 217.523438 329.9375 216.746094 C 330.066406 216.355469 330.207031 215.960938 330.335938 215.550781 C 330.460938 215.144531 330.589844 214.730469 330.71875 214.308594 C 331.769531 210.933594 332.835938 207.039062 333.832031 202.4375 "/></g><g clip-rule="nonzero" clip-path="url(#9befb216e4)"><path style=" stroke:none;fill-rule:nonzero;fill:#00c008;fill-opacity:1;" d="M 142.695312 61.335938 C 143.355469 61.039062 144.015625 60.742188 144.675781 60.445312 C 145.339844 60.160156 146.003906 59.878906 146.671875 59.597656 C 148.003906 59.019531 149.371094 58.527344 150.753906 58.023438 C 151.46875 57.785156 152.195312 57.5625 152.921875 57.335938 C 153.285156 57.226562 153.652344 57.117188 154.015625 57.007812 C 154.386719 56.90625 154.753906 56.808594 155.125 56.707031 C 155.863281 56.511719 156.601562 56.308594 157.34375 56.125 C 158.085938 55.941406 158.832031 55.761719 159.574219 55.582031 C 158.851562 55.816406 158.128906 56.054688 157.40625 56.289062 C 156.683594 56.53125 155.964844 56.792969 155.234375 57.050781 C 154.871094 57.179688 154.503906 57.308594 154.136719 57.4375 C 153.773438 57.578125 153.402344 57.714844 153.035156 57.855469 C 152.296875 58.140625 151.542969 58.417969 150.785156 58.71875 C 149.933594 58.976562 149.148438 59.210938 148.410156 59.429688 C 147.667969 59.648438 146.988281 59.886719 146.335938 60.09375 C 145.027344 60.507812 143.863281 60.925781 142.695312 61.335938 Z M 252.613281 54.070312 C 248.699219 52.289062 244.769531 50.515625 240.730469 48.988281 C 241.507812 49.121094 242.191406 49.09375 243.082031 49.414062 C 243.757812 49.664062 244.4375 49.917969 245.125 50.175781 C 245.464844 50.304688 245.8125 50.433594 246.160156 50.5625 C 246.503906 50.703125 246.851562 50.847656 247.203125 50.988281 C 247.90625 51.273438 248.625 51.566406 249.371094 51.871094 C 250.105469 52.191406 250.863281 52.519531 251.652344 52.867188 C 254.792969 54.269531 258.390625 55.976562 262.789062 58.402344 C 262.445312 58.242188 262.117188 58.085938 261.796875 57.9375 C 261.476562 57.796875 261.164062 57.65625 260.863281 57.523438 C 260.265625 57.265625 259.710938 57.019531 259.195312 56.792969 C 258.160156 56.347656 257.261719 56.003906 256.480469 55.679688 C 256.089844 55.519531 255.722656 55.371094 255.375 55.226562 C 255.027344 55.089844 254.699219 54.960938 254.382812 54.832031 C 253.753906 54.578125 253.179688 54.332031 252.613281 54.070312 Z M 144.601562 59.753906 C 141.683594 60.859375 139.667969 61.335938 137.28125 62.199219 C 137.601562 62.03125 137.921875 61.863281 138.246094 61.699219 C 138.570312 61.535156 138.898438 61.375 139.222656 61.214844 C 139.878906 60.890625 140.53125 60.570312 141.183594 60.246094 C 141.84375 59.941406 142.503906 59.644531 143.160156 59.355469 C 143.488281 59.210938 143.816406 59.074219 144.140625 58.933594 C 144.46875 58.796875 144.796875 58.675781 145.125 58.550781 C 145.933594 58.25 146.730469 57.953125 147.617188 57.660156 C 148.5 57.378906 149.460938 57.070312 150.582031 56.730469 C 152.832031 56.09375 155.710938 55.265625 159.941406 54.332031 C 155.503906 55.605469 152.386719 56.78125 150.003906 57.671875 C 147.621094 58.574219 146 59.257812 144.601562 59.753906 Z M 93.894531 97.070312 C 102.757812 87.503906 113.058594 79.050781 124.542969 72.136719 C 127.417969 70.414062 130.351562 68.769531 133.367188 67.25 C 136.382812 65.730469 139.464844 64.308594 142.601562 62.988281 C 148.894531 60.382812 155.417969 58.179688 162.144531 56.511719 C 164.875 55.804688 167.675781 55.28125 170.480469 54.789062 L 172.59375 54.460938 L 173.652344 54.300781 L 174.710938 54.160156 C 175.414062 54.066406 176.121094 53.972656 176.824219 53.875 C 177.53125 53.796875 178.234375 53.714844 178.9375 53.636719 C 182.441406 53.246094 184.265625 53.238281 185.238281 53.328125 C 186.214844 53.410156 186.351562 53.597656 186.511719 53.78125 C 186.667969 53.964844 186.847656 54.144531 187.902344 54.246094 C 188.429688 54.296875 189.175781 54.320312 190.246094 54.316406 C 190.78125 54.328125 191.398438 54.332031 192.113281 54.328125 C 192.824219 54.324219 193.628906 54.308594 194.546875 54.324219 C 189.804688 54.507812 185.390625 55.019531 180.375 55.589844 C 170.761719 56.722656 161.242188 58.910156 152.085938 62.140625 C 142.9375 65.402344 134.136719 69.652344 125.980469 74.878906 L 126.359375 75.050781 L 127.25 74.5 L 128.148438 73.964844 L 129.953125 72.90625 C 131.175781 72.230469 132.378906 71.523438 133.621094 70.890625 C 136.082031 69.5625 138.605469 68.363281 141.152344 67.195312 C 146.269531 64.917969 151.539062 62.925781 156.976562 61.324219 C 162.402344 59.695312 167.992188 58.457031 173.703125 57.550781 C 176.5625 57.125 179.445312 56.742188 182.363281 56.511719 C 183.820312 56.363281 185.289062 56.296875 186.757812 56.195312 C 187.496094 56.160156 188.234375 56.140625 188.972656 56.109375 L 190.082031 56.066406 C 190.453125 56.054688 190.824219 56.054688 191.195312 56.046875 C 180.429688 57.003906 169.238281 59.035156 157.894531 62.636719 C 146.558594 66.238281 135.070312 71.445312 124.03125 78.660156 C 116.335938 83.679688 109.199219 89.632812 102.789062 96.289062 L 102.183594 96.910156 L 101.59375 97.546875 L 100.417969 98.820312 C 99.636719 99.667969 98.882812 100.546875 98.113281 101.410156 C 97.375 102.296875 96.621094 103.171875 95.890625 104.070312 L 94.265625 106.101562 L 93.742188 106.789062 C 90.921875 110.453125 88.304688 114.265625 85.894531 118.199219 L 86.402344 118.414062 C 92.984375 107.886719 101.128906 98.351562 110.46875 90.207031 L 110.367188 90.710938 C 101.484375 98.570312 93.695312 107.691406 87.269531 117.898438 C 80.847656 128.101562 75.789062 139.398438 72.476562 151.582031 C 75.003906 143.0625 78.371094 134.980469 82.453125 127.367188 C 86.542969 119.757812 91.351562 112.625 96.785156 105.988281 C 102.226562 99.355469 108.289062 93.207031 114.976562 87.625 C 121.667969 82.042969 128.953125 76.988281 136.867188 72.589844 C 139.335938 71.226562 141.90625 69.921875 144.5625 68.695312 C 147.226562 67.488281 149.96875 66.328125 152.789062 65.296875 C 158.429688 63.21875 164.351562 61.527344 170.417969 60.289062 C 173.449219 59.683594 176.511719 59.144531 179.589844 58.773438 L 180.746094 58.621094 L 181.902344 58.5 C 182.675781 58.421875 183.445312 58.320312 184.21875 58.257812 C 184.992188 58.195312 185.761719 58.132812 186.535156 58.066406 C 187.304688 58 188.078125 57.972656 188.851562 57.921875 C 190.390625 57.816406 191.9375 57.796875 193.472656 57.738281 C 194.242188 57.730469 195.011719 57.722656 195.777344 57.714844 L 196.925781 57.707031 L 198.074219 57.726562 C 201.128906 57.746094 204.152344 57.917969 207.136719 58.136719 C 207.933594 58.207031 208.722656 58.273438 209.5 58.339844 C 210.277344 58.421875 211.042969 58.503906 211.800781 58.582031 C 212.179688 58.621094 212.554688 58.660156 212.929688 58.703125 C 213.300781 58.75 213.671875 58.796875 214.039062 58.84375 C 214.773438 58.9375 215.5 59.03125 216.210938 59.121094 C 217.632812 59.34375 219.019531 59.515625 220.347656 59.753906 C 221.015625 59.867188 221.667969 59.972656 222.3125 60.082031 C 222.957031 60.199219 223.585938 60.316406 224.203125 60.433594 C 229.152344 61.355469 233.3125 62.335938 236.582031 63.101562 C 236.992188 63.195312 237.386719 63.28125 237.769531 63.367188 C 238.152344 63.457031 238.515625 63.546875 238.871094 63.628906 C 239.574219 63.789062 240.226562 63.929688 240.820312 64.042969 C 241.996094 64.296875 242.941406 64.453125 243.644531 64.496094 C 245.039062 64.597656 245.441406 64.269531 244.6875 63.402344 C 244.179688 62.835938 245.101562 62.53125 243.132812 61.1875 C 242.886719 61.019531 242.59375 60.832031 242.246094 60.628906 C 241.898438 60.433594 241.492188 60.222656 241.027344 59.988281 C 240.558594 59.757812 240.027344 59.503906 239.425781 59.230469 C 238.820312 58.964844 238.140625 58.6875 237.378906 58.386719 C 234.332031 57.195312 229.945312 55.71875 223.589844 54.324219 C 222.492188 54.109375 221.308594 53.820312 220.0625 53.527344 C 219.4375 53.382812 218.800781 53.234375 218.148438 53.085938 C 217.824219 53.007812 217.5 52.933594 217.167969 52.851562 C 216.839844 52.777344 216.503906 52.707031 216.171875 52.632812 C 215.5 52.484375 214.824219 52.339844 214.148438 52.1875 C 213.46875 52.039062 212.785156 51.914062 212.101562 51.777344 C 210.742188 51.496094 209.378906 51.277344 208.054688 51.070312 C 215.671875 51.726562 223.414062 53.179688 230.457031 55.144531 C 233.976562 56.132812 237.316406 57.265625 240.394531 58.449219 C 241.160156 58.753906 241.914062 59.054688 242.652344 59.347656 C 243.378906 59.660156 244.097656 59.972656 244.796875 60.277344 C 245.496094 60.574219 246.171875 60.890625 246.828125 61.207031 C 247.484375 61.519531 248.121094 61.824219 248.738281 62.132812 C 252.46875 64.011719 255.875 65.878906 259.074219 67.730469 C 262.273438 69.582031 265.265625 71.414062 268.132812 73.277344 C 270.988281 75.152344 273.722656 77.054688 276.398438 79.039062 C 279.070312 81.03125 281.664062 83.132812 284.25 85.390625 C 284.855469 85.917969 285.449219 86.4375 286.035156 86.953125 C 286.613281 87.472656 287.183594 87.988281 287.75 88.5 C 288.324219 89.003906 288.875 89.515625 289.421875 90.03125 C 289.96875 90.542969 290.527344 91.042969 291.0625 91.5625 C 293.214844 93.632812 295.285156 95.765625 297.3125 98.171875 C 300.445312 101.902344 302.785156 105.015625 304.628906 107.488281 C 306.476562 109.957031 307.808594 111.796875 308.816406 113.066406 C 309.328125 113.695312 309.742188 114.195312 310.085938 114.566406 C 310.433594 114.9375 310.714844 115.175781 310.9375 115.304688 C 311.386719 115.5625 311.605469 115.375 311.675781 114.875 C 311.703125 114.652344 312.167969 115.050781 312.8125 115.824219 C 313.125 116.21875 313.488281 116.703125 313.863281 117.25 C 314.238281 117.796875 314.636719 118.398438 314.992188 119.042969 C 317.597656 123.605469 319.332031 127.164062 320.738281 130.183594 C 321.082031 130.945312 321.40625 131.667969 321.722656 132.367188 C 321.878906 132.714844 322.03125 133.058594 322.183594 133.398438 C 322.328125 133.738281 322.46875 134.074219 322.613281 134.40625 C 322.894531 135.066406 323.171875 135.714844 323.441406 136.355469 C 323.703125 137 323.964844 137.636719 324.222656 138.28125 C 325.269531 140.847656 326.277344 143.492188 327.457031 146.878906 C 328.628906 150.265625 329.960938 154.398438 331.324219 160.03125 C 330.011719 152.957031 328.292969 146.609375 326.285156 140.699219 C 324.300781 134.78125 321.996094 129.3125 319.453125 123.953125 C 319.046875 123.09375 318.53125 122.019531 318.027344 120.882812 C 317.511719 119.75 316.953125 118.574219 316.480469 117.507812 C 315.484375 115.394531 314.75 113.734375 314.941406 113.890625 C 315.289062 114.132812 315.816406 114.738281 316.523438 115.632812 C 316.867188 116.085938 317.273438 116.601562 317.683594 117.199219 C 318.101562 117.796875 318.550781 118.460938 319.03125 119.1875 C 320.9375 122.109375 323.21875 126.066406 325.402344 130.660156 C 327.59375 135.25 329.691406 140.476562 331.34375 145.796875 C 333.015625 151.113281 334.273438 156.511719 335.058594 161.355469 C 335.644531 164.992188 335.976562 168.957031 336.292969 172.367188 C 336.679688 176.472656 337.015625 180.152344 337.175781 184.035156 C 337.242188 182.8125 337.332031 181.683594 337.402344 180.496094 C 337.457031 179.3125 337.484375 178.0625 337.464844 176.597656 L 337.378906 174.179688 L 337.335938 172.972656 L 337.257812 171.765625 L 337.109375 169.347656 L 336.902344 166.933594 L 336.796875 165.722656 L 336.664062 164.515625 C 336.570312 163.710938 336.480469 162.902344 336.390625 162.097656 C 336.277344 161.292969 336.167969 160.484375 336.054688 159.679688 L 335.886719 158.46875 L 335.6875 157.261719 C 335.554688 156.457031 335.417969 155.648438 335.285156 154.84375 C 335.128906 154.039062 334.972656 153.234375 334.816406 152.425781 C 334.738281 152.023438 334.664062 151.617188 334.578125 151.214844 L 334.3125 150.007812 C 334.132812 149.203125 333.960938 148.394531 333.769531 147.589844 C 332.988281 144.367188 332.105469 141.144531 331.074219 137.929688 C 326.527344 123.722656 319.679688 110.175781 310.894531 97.957031 C 302.121094 85.726562 291.371094 74.851562 279.171875 65.863281 C 274.171875 62.148438 268.894531 58.800781 263.449219 55.753906 C 260.710938 54.257812 257.945312 52.804688 255.113281 51.480469 C 253.710938 50.796875 252.277344 50.179688 250.847656 49.539062 C 250.136719 49.21875 249.410156 48.929688 248.691406 48.628906 C 247.964844 48.332031 247.25 48.015625 246.519531 47.742188 C 240.703125 45.449219 234.742188 43.492188 228.667969 41.972656 C 227.910156 41.785156 227.152344 41.589844 226.390625 41.410156 L 224.097656 40.894531 L 222.953125 40.640625 L 221.800781 40.410156 L 219.496094 39.957031 C 216.414062 39.410156 213.324219 38.902344 210.210938 38.550781 C 207.105469 38.160156 203.980469 37.917969 200.855469 37.722656 L 197.339844 37.570312 L 196.164062 37.546875 L 193.816406 37.503906 C 193.035156 37.496094 192.253906 37.507812 191.472656 37.511719 C 188.339844 37.519531 185.210938 37.667969 182.082031 37.875 L 179.738281 38.066406 L 178.570312 38.164062 L 177.398438 38.289062 L 175.058594 38.542969 L 172.726562 38.847656 C 160.289062 40.523438 148.058594 43.855469 136.441406 48.65625 C 137.15625 48.449219 137.890625 48.226562 138.648438 47.992188 C 139.023438 47.871094 139.40625 47.75 139.792969 47.628906 C 140.183594 47.511719 140.574219 47.394531 140.976562 47.273438 C 141.769531 47.027344 142.578125 46.78125 143.402344 46.53125 C 144.230469 46.285156 145.070312 46.039062 145.917969 45.789062 C 149.320312 44.816406 152.878906 43.84375 156.363281 43.09375 C 157.238281 42.886719 158.078125 42.742188 158.875 42.589844 C 159.675781 42.449219 160.441406 42.296875 161.199219 42.191406 C 162.710938 41.976562 164.160156 41.75 165.714844 41.574219 C 164.222656 41.90625 162.511719 42.414062 160.9375 42.832031 C 159.367188 43.296875 157.941406 43.699219 157.027344 43.910156 C 152.578125 44.914062 148.84375 46.125 145.449219 47.398438 C 143.746094 48.023438 142.148438 48.71875 140.574219 49.390625 C 139.011719 50.109375 137.472656 50.792969 135.953125 51.566406 C 132.890625 53.066406 129.824219 54.722656 126.414062 56.636719 C 123.007812 58.558594 119.257812 60.75 114.902344 63.484375 C 114.144531 63.964844 113.566406 64.339844 113.140625 64.625 C 112.714844 64.917969 112.449219 65.125 112.300781 65.253906 C 112.007812 65.511719 112.203125 65.46875 112.679688 65.257812 C 113.164062 65.035156 113.925781 64.679688 114.761719 64.292969 C 115.597656 63.902344 116.496094 63.472656 117.273438 63.171875 C 118.816406 62.554688 119.765625 62.308594 118.433594 63.394531 C 118.097656 63.667969 117.621094 64.019531 116.976562 64.480469 C 116.34375 64.945312 115.539062 65.519531 114.546875 66.207031 C 112.582031 67.621094 109.84375 69.511719 106.308594 72.269531 C 106.65625 72.125 106.847656 72.203125 107.367188 71.8125 C 111.355469 68.871094 113.949219 67.320312 115.578125 66.476562 C 117.210938 65.632812 117.871094 65.472656 118.175781 65.566406 C 118.777344 65.742188 117.921875 66.835938 120.464844 65.476562 C 124.449219 63.386719 126.761719 62.402344 127.769531 62.019531 C 128.785156 61.65625 128.503906 61.898438 127.425781 62.542969 C 126.894531 62.867188 126.160156 63.300781 125.292969 63.796875 C 124.421875 64.292969 123.4375 64.90625 122.363281 65.535156 C 121.296875 66.171875 120.175781 66.898438 119.023438 67.609375 C 118.460938 67.984375 117.890625 68.359375 117.324219 68.734375 C 116.757812 69.105469 116.195312 69.476562 115.652344 69.863281 C 101.929688 79.296875 89.929688 91.25 80.40625 104.910156 C 79.859375 106.996094 75.941406 113.035156 72.421875 119.925781 C 70.652344 123.363281 68.945312 126.988281 67.636719 130.296875 C 67.296875 131.117188 67.007812 131.933594 66.71875 132.703125 C 66.578125 133.089844 66.441406 133.46875 66.304688 133.839844 C 66.183594 134.210938 66.0625 134.574219 65.949219 134.929688 C 65.71875 135.636719 65.515625 136.300781 65.332031 136.917969 C 65.160156 137.535156 65.023438 138.109375 64.910156 138.621094 C 65.878906 136.082031 66.96875 133.566406 68.085938 131.066406 C 69.246094 128.585938 70.433594 126.117188 71.730469 123.71875 C 73 121.308594 74.375 118.976562 75.761719 116.695312 C 76.109375 116.125 76.472656 115.570312 76.828125 115.007812 C 77.191406 114.453125 77.53125 113.886719 77.90625 113.34375 C 78.648438 112.257812 79.355469 111.164062 80.121094 110.121094 C 80.574219 109.484375 80.992188 108.910156 81.367188 108.398438 C 81.757812 107.898438 82.105469 107.464844 82.394531 107.109375 C 82.980469 106.394531 83.355469 105.992188 83.445312 105.996094 C 83.539062 106 83.347656 106.40625 82.804688 107.308594 C 82.25 108.207031 81.375 109.613281 80.121094 111.636719 C 77.167969 116.46875 74.429688 121.601562 72.480469 125.828125 C 78.398438 115.128906 85.683594 105.402344 94.054688 96.871094 L 93.894531 97.070312 "/></g><path style=" stroke:none;fill-rule:nonzero;fill:#00c008;fill-opacity:1;" d="M 95.785156 110.058594 C 97.65625 107.496094 99.753906 104.867188 102.070312 102.214844 C 104.382812 99.558594 106.917969 96.878906 109.675781 94.234375 C 115.183594 88.941406 121.601562 83.789062 128.800781 79.195312 C 132.398438 76.898438 136.1875 74.734375 140.140625 72.757812 C 144.097656 70.789062 148.210938 69.003906 152.453125 67.429688 C 156.691406 65.859375 161.050781 64.503906 165.484375 63.386719 C 169.921875 62.28125 174.4375 61.414062 178.976562 60.796875 C 185.027344 59.949219 190.945312 59.632812 196.761719 59.679688 C 202.578125 59.78125 208.292969 60.242188 213.960938 61.191406 C 219.636719 62.109375 225.257812 63.492188 230.882812 65.332031 C 233.695312 66.257812 236.5 67.324219 239.3125 68.496094 C 242.117188 69.6875 244.917969 71.019531 247.726562 72.484375 C 251.816406 74.652344 254.632812 76.378906 256.464844 77.585938 C 256.921875 77.882812 257.324219 78.144531 257.664062 78.375 C 258.003906 78.613281 258.285156 78.816406 258.515625 78.984375 C 258.972656 79.324219 259.21875 79.527344 259.277344 79.621094 C 259.386719 79.800781 258.738281 79.523438 257.503906 78.921875 C 256.878906 78.628906 256.105469 78.265625 255.203125 77.84375 C 254.757812 77.628906 254.269531 77.410156 253.75 77.1875 C 253.234375 76.960938 252.6875 76.71875 252.117188 76.46875 C 249.117188 75.210938 246.980469 74.496094 245.746094 74.21875 C 244.511719 73.945312 244.191406 74.085938 244.769531 74.636719 C 245.355469 75.183594 246.839844 76.152344 249.164062 77.644531 C 251.488281 79.132812 254.652344 81.160156 258.484375 83.960938 C 262.378906 86.824219 264.019531 88.484375 264.28125 89.015625 C 264.527344 89.566406 263.339844 89.066406 261.308594 87.984375 C 253.011719 83.648438 243.535156 79.796875 233.570312 77.339844 C 233.324219 77.28125 233.039062 77.199219 232.714844 77.105469 C 232.394531 77.015625 232.035156 76.914062 231.648438 76.804688 C 230.878906 76.585938 230.007812 76.304688 229.074219 76.046875 C 228.148438 75.777344 227.175781 75.480469 226.210938 75.222656 C 225.730469 75.085938 225.253906 74.953125 224.789062 74.820312 C 224.320312 74.695312 223.867188 74.574219 223.429688 74.457031 C 222.03125 74.0625 220.621094 73.75 219.234375 73.417969 C 217.832031 73.132812 216.449219 72.824219 215.058594 72.597656 C 213.679688 72.335938 212.292969 72.15625 210.921875 71.949219 C 210.234375 71.867188 209.546875 71.785156 208.863281 71.703125 C 208.179688 71.613281 207.496094 71.550781 206.8125 71.492188 C 201.351562 70.964844 195.960938 70.90625 190.589844 71.105469 C 179.480469 71.578125 168.171875 73.511719 157.125 77.230469 C 146.09375 80.941406 135.316406 86.402344 125.488281 93.640625 C 134.414062 86.457031 144.53125 80.628906 155.292969 76.449219 C 166.058594 72.257812 177.46875 69.734375 188.980469 68.917969 C 197.320312 68.324219 205.582031 68.574219 213.695312 69.664062 C 221.816406 70.75 229.796875 72.703125 237.582031 75.527344 L 237.800781 75.007812 C 231.503906 72.332031 224.917969 70.191406 218.300781 68.660156 C 217.980469 68.582031 217.65625 68.503906 217.328125 68.425781 C 216.992188 68.355469 216.65625 68.285156 216.316406 68.214844 C 215.628906 68.074219 214.933594 67.921875 214.230469 67.785156 C 212.816406 67.53125 211.390625 67.257812 210.023438 67.054688 C 207.292969 66.601562 204.8125 66.300781 203.292969 66.019531 C 200.210938 65.480469 196.996094 65.113281 193.675781 64.957031 C 190.355469 64.816406 186.9375 64.863281 183.464844 65.128906 C 176.511719 65.636719 169.328125 67.050781 162.1875 69.285156 C 158.582031 70.414062 154.734375 71.796875 151.234375 73.300781 C 147.730469 74.796875 144.578125 76.410156 142.265625 77.78125 C 138.429688 80.097656 135.480469 82.015625 132.328125 83.96875 C 129.1875 85.9375 125.847656 87.9375 121.445312 90.785156 C 120.796875 91.191406 120.097656 91.695312 119.328125 92.253906 C 118.550781 92.804688 117.734375 93.453125 116.851562 94.152344 C 116.632812 94.328125 116.40625 94.503906 116.179688 94.6875 C 115.957031 94.875 115.730469 95.066406 115.5 95.261719 C 115.039062 95.648438 114.5625 96.054688 114.074219 96.464844 C 113.59375 96.894531 113.105469 97.335938 112.597656 97.789062 C 112.347656 98.015625 112.089844 98.242188 111.835938 98.480469 C 111.582031 98.71875 111.324219 98.960938 111.066406 99.207031 C 110.554688 99.699219 110.011719 100.1875 109.488281 100.71875 C 108.960938 101.246094 108.421875 101.78125 107.875 102.328125 C 107.339844 102.890625 106.792969 103.460938 106.238281 104.042969 C 105.675781 104.621094 105.140625 105.238281 104.578125 105.847656 C 102.351562 108.3125 100.085938 111.015625 97.859375 113.925781 C 102.261719 107.746094 107.117188 102.191406 112.273438 97.234375 C 117.425781 92.273438 122.878906 87.910156 128.53125 84.125 C 134.183594 80.339844 140.011719 77.085938 145.976562 74.394531 C 148.957031 73.042969 151.964844 71.808594 155 70.710938 C 158.035156 69.625 161.097656 68.652344 164.175781 67.800781 C 164.800781 67.628906 165.417969 67.460938 166.027344 67.292969 C 166.636719 67.117188 167.25 66.980469 167.851562 66.816406 C 168.457031 66.664062 169.050781 66.492188 169.652344 66.347656 C 170.25 66.199219 170.851562 66.054688 171.453125 65.90625 L 172.351562 65.679688 C 172.652344 65.613281 172.957031 65.542969 173.257812 65.476562 C 173.867188 65.332031 174.476562 65.191406 175.089844 65.046875 C 175.707031 64.917969 176.332031 64.78125 176.964844 64.648438 C 177.59375 64.511719 178.234375 64.367188 178.886719 64.253906 C 179.542969 64.125 180.203125 64 180.882812 63.867188 C 181.558594 63.738281 182.25 63.636719 182.957031 63.511719 C 183.667969 63.394531 184.390625 63.273438 185.132812 63.175781 C 185.878906 63.070312 186.640625 62.964844 187.421875 62.855469 C 190.554688 62.464844 194.035156 62.15625 198.007812 62.03125 C 185.9375 61.554688 174.320312 62.824219 163.628906 65.484375 C 162.957031 65.636719 162.296875 65.824219 161.632812 66 C 160.972656 66.179688 160.308594 66.335938 159.65625 66.535156 C 158.351562 66.917969 157.050781 67.285156 155.777344 67.710938 C 153.214844 68.511719 150.722656 69.425781 148.285156 70.371094 C 143.425781 72.304688 138.804688 74.449219 134.484375 76.835938 C 130.15625 79.210938 126.089844 81.75 122.328125 84.433594 C 118.5625 87.117188 115.074219 89.910156 111.863281 92.761719 C 105.4375 98.457031 100.128906 104.371094 95.785156 110.058594 "/><path style=" stroke:none;fill-rule:nonzero;fill:#00c008;fill-opacity:1;" d="M 93.894531 97.070312 C 92.070312 99.328125 89.847656 102.03125 87.652344 104.949219 C 85.464844 107.867188 83.304688 110.992188 81.472656 113.964844 C 80.542969 115.441406 79.734375 116.902344 78.988281 118.242188 C 78.632812 118.921875 78.300781 119.578125 77.992188 120.199219 C 77.84375 120.511719 77.695312 120.816406 77.550781 121.109375 C 77.417969 121.40625 77.292969 121.695312 77.171875 121.972656 C 76.199219 124.195312 75.769531 125.828125 76.023438 126.449219 C 76.035156 126.480469 75.921875 126.769531 75.710938 127.246094 C 75.503906 127.726562 75.214844 128.398438 74.851562 129.199219 C 74.675781 129.597656 74.472656 130.027344 74.273438 130.484375 C 74.074219 130.945312 73.863281 131.425781 73.644531 131.925781 C 73.429688 132.425781 73.1875 132.9375 72.96875 133.464844 C 72.742188 133.988281 72.515625 134.523438 72.289062 135.0625 C 70.441406 139.328125 68.769531 143.695312 68.164062 143.660156 C 68.160156 143.667969 68.207031 143.828125 68.207031 143.828125 C 67.246094 144.976562 67.195312 143.921875 67.988281 140.964844 C 68.792969 138.015625 70.542969 133.191406 73.558594 127.085938 C 78.9375 116.238281 85.84375 105.984375 94.019531 96.910156 C 94.054688 96.871094 93.894531 97.070312 93.894531 97.070312 "/><path style=" stroke:none;fill-rule:nonzero;fill:#00c008;fill-opacity:1;" d="M 65.128906 186.632812 C 65.128906 185.742188 65.125 184.878906 65.125 184.035156 C 65.144531 183.195312 65.164062 182.371094 65.179688 181.574219 C 65.191406 180.773438 65.234375 179.996094 65.269531 179.238281 C 65.3125 178.476562 65.328125 177.738281 65.382812 177.019531 C 65.496094 175.582031 65.566406 174.21875 65.710938 172.929688 C 65.773438 172.28125 65.832031 171.652344 65.894531 171.039062 C 65.96875 170.425781 66.039062 169.828125 66.109375 169.246094 C 66.695312 164.585938 67.414062 160.878906 68.214844 157.59375 C 68.460938 156.636719 68.695312 155.835938 68.929688 155.136719 C 69.179688 154.4375 69.425781 153.84375 69.664062 153.289062 C 70.132812 152.183594 70.640625 151.261719 71.152344 150.066406 C 70.867188 151.199219 70.558594 152.421875 70.300781 153.671875 C 70.167969 154.296875 70.023438 154.921875 69.898438 155.546875 C 69.777344 156.175781 69.65625 156.796875 69.539062 157.40625 C 69.074219 159.84375 68.707031 162.074219 68.40625 163.511719 C 68.308594 163.953125 68.214844 164.390625 68.121094 164.824219 C 68.035156 165.257812 67.949219 165.6875 67.867188 166.117188 C 67.699219 166.972656 67.511719 167.816406 67.367188 168.664062 C 67.214844 169.511719 67.058594 170.363281 66.902344 171.222656 C 66.761719 172.085938 66.617188 172.964844 66.472656 173.863281 C 65.925781 177.46875 65.414062 181.472656 65.128906 186.632812 "/><path style=" stroke:none;fill-rule:nonzero;fill:#00c008;fill-opacity:1;" d="M 64.609375 215.660156 C 65.410156 219.3125 66.355469 222.941406 67.46875 226.523438 C 68.582031 230.105469 69.847656 233.640625 71.261719 237.125 C 74.078125 244.09375 77.519531 250.824219 81.5 257.238281 L 80.464844 256.214844 L 79.453125 255.171875 C 77.550781 251.9375 75.78125 248.636719 74.160156 245.261719 C 72.546875 241.886719 71.070312 238.449219 69.742188 234.960938 C 67.070312 227.988281 65.035156 220.792969 63.582031 213.503906 C 63.902344 214.230469 64.265625 214.945312 64.609375 215.660156 "/><path style=" stroke:none;fill-rule:nonzero;fill:#00c008;fill-opacity:1;" d="M 68.207031 143.828125 C 68.207031 143.828125 68.160156 143.667969 68.164062 143.660156 C 66.570312 148.988281 65.367188 154.183594 64.375 158.929688 C 63.386719 163.675781 62.621094 167.976562 61.867188 171.546875 C 61.855469 171.601562 61.847656 171.410156 61.847656 171.082031 C 61.84375 170.917969 61.84375 170.71875 61.84375 170.5 C 61.851562 170.28125 61.859375 170.042969 61.867188 169.796875 C 61.902344 168.8125 61.957031 167.722656 62.003906 167.414062 C 63.347656 159.21875 65.433594 151.410156 68.207031 143.828125 "/><path style=" stroke:none;fill-rule:nonzero;fill:#00c008;fill-opacity:1;" d="M 84.820312 87.105469 C 88.289062 83.386719 91.945312 79.847656 95.773438 76.515625 C 99.601562 73.183594 103.605469 70.0625 107.75 67.152344 L 107.183594 67.960938 C 98.621094 74.175781 90.730469 81.335938 83.6875 89.273438 C 84.054688 88.546875 84.441406 87.832031 84.820312 87.105469 "/><path style=" stroke:none;fill-rule:nonzero;fill:#00c008;fill-opacity:1;" d="M 153.078125 61.023438 C 148.746094 62.445312 144.492188 64.097656 140.335938 65.96875 C 136.179688 67.847656 132.125 69.949219 128.191406 72.257812 L 128.097656 72.042969 C 132.039062 69.734375 136.097656 67.628906 140.261719 65.75 C 144.425781 63.875 148.6875 62.226562 153.023438 60.800781 L 153.078125 61.023438 "/><path style=" stroke:none;fill-rule:nonzero;fill:#00c008;fill-opacity:1;" d="M 97.664062 270.664062 C 97.015625 269.882812 96.316406 269.089844 95.640625 268.265625 C 94.972656 267.433594 94.28125 266.609375 93.640625 265.78125 C 93.007812 264.949219 92.378906 264.152344 91.824219 263.382812 C 91.273438 262.609375 90.769531 261.886719 90.335938 261.242188 C 89.375 259.734375 88.652344 258.519531 88.050781 257.351562 C 87.75 256.769531 87.460938 256.210938 87.167969 255.644531 C 86.886719 255.074219 86.605469 254.496094 86.296875 253.890625 C 88.472656 257.292969 91.199219 260.925781 93.226562 263.675781 C 95.96875 267.386719 98.222656 270.402344 100.910156 273.5625 C 100.351562 273.097656 99.816406 272.613281 99.277344 272.125 C 98.742188 271.636719 98.191406 271.160156 97.664062 270.664062 "/><path style=" stroke:none;fill-rule:nonzero;fill:#00c008;fill-opacity:1;" d="M 127.820312 82.269531 C 128.652344 81.710938 129.511719 81.1875 130.359375 80.644531 C 131.207031 80.109375 132.078125 79.609375 132.941406 79.09375 C 133.675781 78.664062 134.441406 78.304688 135.1875 77.910156 C 133.453125 78.871094 131.742188 79.882812 130.054688 80.925781 C 129.316406 81.390625 128.550781 81.800781 127.820312 82.269531 "/><path style=" stroke:none;fill-rule:nonzero;fill:#00c008;fill-opacity:1;" d="M 89.394531 130.886719 C 88.96875 131.777344 88.574219 132.605469 88.191406 133.40625 C 87.824219 134.210938 87.472656 134.988281 87.121094 135.769531 C 86.824219 136.433594 86.496094 137.121094 86.179688 137.796875 C 86.496094 137.039062 86.773438 136.261719 87.125 135.519531 C 87.472656 134.785156 87.820312 134.046875 88.183594 133.28125 C 88.566406 132.523438 88.964844 131.734375 89.394531 130.886719 "/><path style=" stroke:none;fill-rule:nonzero;fill:#00c008;fill-opacity:1;" d="M 321.726562 169.425781 C 321.589844 168.664062 321.46875 167.902344 321.308594 167.144531 C 321.152344 166.386719 321.011719 165.625 320.902344 164.851562 C 320.613281 162.996094 320.425781 161.101562 320.117188 159.230469 C 320.296875 159.996094 320.515625 160.746094 320.6875 161.511719 C 320.859375 162.277344 321.023438 163.046875 321.15625 163.832031 C 321.316406 164.746094 321.394531 165.679688 321.492188 166.613281 C 321.597656 167.546875 321.652344 168.488281 321.726562 169.425781 "/><g clip-rule="nonzero" clip-path="url(#50714aaac5)"><path style=" stroke:none;fill-rule:nonzero;fill:#00c008;fill-opacity:1;" d="M 130.871094 116.4375 C 128.558594 118.355469 126.425781 120.417969 124.476562 122.617188 C 125.414062 121.652344 126.382812 120.683594 127.386719 119.710938 C 128.269531 118.847656 129.429688 117.757812 130.871094 116.4375 M 121.441406 118.261719 C 119.871094 119.667969 118.476562 121.003906 117.261719 122.273438 C 116.042969 123.539062 114.957031 124.761719 114 125.941406 C 116.167969 123.492188 118.648438 120.933594 121.441406 118.261719 M 284.652344 163.949219 L 284.613281 164.359375 L 284.605469 164.777344 L 284.625 165.195312 L 284.683594 165.621094 L 284.785156 166.054688 L 284.925781 166.496094 L 285.117188 166.945312 L 285.359375 167.40625 L 285.660156 167.878906 L 286.019531 168.367188 L 286.441406 168.867188 L 286.929688 169.382812 C 286.28125 167.765625 285.523438 165.957031 284.652344 163.949219 M 193.445312 88.199219 L 192.136719 88.207031 C 164.769531 89.390625 141.222656 99.394531 121.5 118.210938 C 142.214844 100.050781 165.460938 90.703125 191.242188 90.167969 C 204.671875 90.261719 216.113281 92.289062 225.5625 96.25 C 239.691406 101.910156 250.984375 108.710938 259.441406 116.65625 C 265.597656 122.425781 270.183594 127.550781 273.195312 132.023438 C 265.621094 121.355469 254.171875 112.144531 238.839844 104.386719 C 222.167969 96.722656 205.894531 92.894531 190.019531 92.898438 C 168.546875 92.476562 148.84375 100.3125 130.90625 116.410156 C 149.425781 101.628906 170.128906 95.070312 193.011719 96.742188 C 219.613281 99.152344 241.933594 108.675781 259.980469 125.3125 C 269.8125 134.601562 278.035156 147.476562 284.652344 163.941406 C 285.929688 159.757812 286.292969 157.246094 285.742188 156.402344 C 288.367188 164.277344 289.929688 172.457031 290.421875 180.933594 C 292.199219 204.898438 284.699219 227.488281 267.929688 248.695312 C 295.449219 217.605469 301.019531 182.953125 284.644531 144.738281 C 275.726562 126.492188 264.019531 113.160156 249.519531 104.734375 C 231.382812 93.882812 212.691406 88.367188 193.445312 88.199219 M 267.894531 248.730469 L 267.203125 249.476562 C 265.117188 251.730469 262.878906 254.011719 260.488281 256.320312 L 262.105469 255.023438 L 262.460938 254.726562 C 262.558594 254.65625 262.96875 254.269531 263.683594 253.5625 C 264.28125 252.957031 264.9375 252.246094 265.648438 251.433594 L 266.742188 250.144531 L 267.894531 248.730469 M 124.441406 122.652344 L 122.738281 124.449219 C 103.375 146.152344 94.746094 170.519531 96.851562 197.550781 C 93.738281 185.929688 93.902344 173.773438 97.339844 161.082031 C 100.660156 147.660156 106.203125 135.960938 113.96875 125.980469 C 101.113281 140.734375 94.058594 159.625 92.800781 182.652344 C 92.765625 186.808594 93.460938 192.011719 94.882812 198.265625 C 99.898438 216.066406 102.832031 225.515625 103.683594 226.609375 C 109.21875 239.203125 115.730469 248.984375 123.222656 255.949219 C 132.792969 264.90625 143.332031 271.628906 154.84375 276.117188 C 166.457031 280.9375 177.464844 283.253906 187.859375 283.066406 C 202.726562 282.742188 216.703125 280.523438 229.789062 276.410156 C 239.289062 273.019531 249.515625 266.332031 260.46875 256.339844 C 249.136719 265.371094 239.390625 271.148438 231.234375 273.671875 C 215.96875 277.871094 201.878906 279.867188 188.960938 279.664062 C 180.859375 280.226562 169.324219 277.289062 154.351562 270.84375 C 143.414062 266.058594 134.382812 260.152344 127.257812 253.121094 C 121.5625 247.410156 117.234375 242.082031 114.273438 237.132812 C 123.09375 247.71875 135.886719 257.820312 152.660156 267.441406 C 160.71875 271.933594 168.746094 275.152344 176.738281 277.097656 C 178.792969 277.566406 179.957031 277.738281 180.222656 277.605469 C 180.367188 277.558594 180.355469 277.457031 180.183594 277.300781 C 180.535156 277.546875 181.0625 277.316406 181.769531 276.609375 C 182.363281 275.890625 182.75 275.179688 182.933594 274.484375 C 172.347656 274.238281 156.042969 267.015625 134.015625 252.820312 C 121.445312 243.433594 111.984375 232.425781 105.632812 219.789062 C 99.621094 205.40625 98.324219 188.332031 101.742188 168.570312 C 104.257812 153.230469 111.824219 137.925781 124.441406 122.652344 "/></g></g></svg>