<svg xmlns="http://www.w3.org/2000/svg" xmlns:xlink="http://www.w3.org/1999/xlink" width="500" zoomAndPan="magnify" viewBox="0 0 375 374.999991" height="500" preserveAspectRatio="xMidYMid meet" version="1.2"><defs><clipPath id="4c92be2eb5"><path d="M 39.640625 118.054688 L 333 118.054688 L 333 337.5 L 39.640625 337.5 Z M 39.640625 118.054688 "/></clipPath><clipPath id="4e2a8d3233"><path d="M 64.714844 37.5 L 335.132812 37.5 L 335.132812 183 L 64.714844 183 Z M 64.714844 37.5 "/></clipPath><clipPath id="2ec9be020a"><path d="M 92 87.761719 L 292 87.761719 L 292 282 L 92 282 Z M 92 87.761719 "/></clipPath></defs><g id="5c30de33a9"><g clip-rule="nonzero" clip-path="url(#4c92be2eb5)"><path style=" stroke:none;fill-rule:nonzero;fill:#00c008;fill-opacity:1;" d="M 331.730469 201.261719 C 330.988281 207 330.0625 211.648438 329.105469 215.722656 C 328.855469 216.742188 328.636719 217.734375 328.378906 218.6875 C 328.125 219.640625 327.875 220.570312 327.632812 221.480469 C 327.367188 222.390625 327.109375 223.277344 326.851562 224.160156 C 326.605469 225.042969 326.308594 225.902344 326.042969 226.769531 C 323.304688 235.355469 319.808594 243.632812 315.523438 251.527344 C 315.847656 251.105469 316.167969 250.683594 316.488281 250.269531 C 316.796875 249.851562 317.105469 249.433594 317.410156 249.019531 C 318.027344 248.1875 318.644531 247.363281 319.238281 246.488281 C 319.839844 245.617188 320.472656 244.734375 321.078125 243.765625 C 321.6875 242.800781 322.347656 241.789062 322.980469 240.667969 C 324.234375 238.582031 326.25 234.144531 327.804688 230.136719 C 329.273438 226.351562 330.339844 223.246094 331.070312 221.054688 C 331.816406 218.875 332.238281 217.613281 332.390625 217.507812 C 332.46875 217.457031 332.472656 217.695312 332.398438 218.242188 C 332.335938 218.792969 332.164062 219.652344 331.902344 220.84375 C 331.382812 223.230469 330.433594 226.957031 328.699219 232.113281 C 328.300781 233.332031 328.109375 234.148438 328.015625 234.871094 C 327.910156 235.59375 327.890625 236.222656 327.714844 237.015625 C 328.15625 236.023438 328.527344 235.0625 328.898438 234.167969 C 329.277344 233.273438 329.601562 232.421875 329.90625 231.625 C 330.207031 230.828125 330.503906 230.09375 330.75 229.410156 C 330.996094 228.726562 331.21875 228.101562 331.425781 227.535156 C 331.84375 226.410156 332.136719 225.523438 332.367188 224.90625 C 332.589844 224.289062 332.734375 223.941406 332.792969 223.882812 C 332.90625 223.761719 332.707031 224.804688 332.082031 227.140625 C 331.753906 228.304688 331.355469 229.804688 330.761719 231.621094 C 330.472656 232.527344 330.164062 233.527344 329.78125 234.597656 C 329.410156 235.671875 329.019531 236.839844 328.539062 238.078125 C 324.78125 248.160156 320.34375 257.21875 315.359375 265.53125 C 310.367188 273.839844 304.820312 281.414062 298.605469 288.417969 C 294.832031 292.675781 290.875 296.640625 286.769531 300.375 C 282.65625 304.101562 278.386719 307.597656 273.925781 310.839844 C 269.464844 314.078125 264.824219 317.085938 259.976562 319.859375 C 255.128906 322.621094 250.082031 325.167969 244.792969 327.421875 C 243.726562 327.859375 242.5 328.367188 241.144531 328.859375 C 239.785156 329.34375 238.320312 329.882812 236.78125 330.355469 C 236.011719 330.601562 235.230469 330.847656 234.441406 331.097656 C 233.648438 331.324219 232.847656 331.554688 232.050781 331.785156 C 231.652344 331.898438 231.253906 332.011719 230.855469 332.125 C 230.457031 332.230469 230.054688 332.332031 229.660156 332.4375 C 228.867188 332.640625 228.082031 332.847656 227.316406 333.046875 C 217.753906 335.425781 207.933594 336.863281 198.050781 337.328125 C 188.179688 337.796875 178.210938 337.308594 168.320312 335.8125 C 158.433594 334.320312 148.640625 331.816406 139.164062 328.3125 C 129.683594 324.808594 120.523438 320.304688 111.882812 314.878906 C 91.644531 302.195312 74.460938 284.785156 62.046875 264.449219 C 55.820312 254.292969 50.820312 243.390625 47.113281 232.085938 C 43.449219 220.769531 41.066406 209.042969 40.125 197.234375 C 39.757812 192.738281 39.597656 188.339844 39.652344 184.070312 C 39.703125 179.800781 39.917969 175.652344 40.308594 171.644531 C 40.710938 167.640625 41.253906 163.777344 41.929688 160.078125 C 42.101562 159.152344 42.289062 158.242188 42.46875 157.335938 C 42.5625 156.882812 42.65625 156.433594 42.746094 155.984375 C 42.847656 155.539062 42.949219 155.097656 43.050781 154.65625 C 43.257812 153.773438 43.449219 152.898438 43.667969 152.035156 C 43.890625 151.179688 44.113281 150.328125 44.332031 149.488281 C 44.546875 148.644531 44.796875 147.820312 45.035156 147.003906 C 45.277344 146.1875 45.5 145.375 45.761719 144.585938 C 46.273438 143 46.765625 141.453125 47.316406 139.960938 C 47.585938 139.214844 47.84375 138.472656 48.121094 137.75 C 48.40625 137.03125 48.683594 136.316406 48.960938 135.613281 C 49.101562 135.261719 49.242188 134.914062 49.378906 134.570312 C 49.523438 134.226562 49.667969 133.886719 49.8125 133.546875 C 50.105469 132.875 50.394531 132.207031 50.679688 131.550781 C 53.003906 126.324219 55.476562 121.878906 57.839844 118.203125 C 53.589844 127.332031 50.199219 137.042969 47.875 146.96875 C 45.546875 156.894531 44.285156 167.023438 44.089844 176.914062 C 43.863281 189.0625 45.214844 199.980469 47.710938 210.910156 C 48.972656 216.375 50.515625 221.855469 52.46875 227.476562 C 54.425781 233.09375 56.71875 238.886719 59.589844 244.925781 C 61.320312 248.578125 63.574219 251.683594 65.527344 254.410156 C 65.816406 254.820312 66.085938 255.199219 66.355469 255.546875 C 66.625 255.898438 66.878906 256.21875 67.125 256.519531 C 67.621094 257.125 68.078125 257.65625 68.523438 258.167969 C 68.984375 258.671875 69.433594 259.164062 69.90625 259.6875 C 70.382812 260.210938 70.867188 260.78125 71.433594 261.425781 C 72 262.074219 72.605469 262.824219 73.316406 263.707031 C 73.675781 264.144531 74.058594 264.617188 74.46875 265.136719 C 74.878906 265.65625 75.308594 266.21875 75.796875 266.816406 C 76.277344 267.417969 76.789062 268.066406 77.335938 268.773438 C 77.894531 269.46875 78.496094 270.21875 79.144531 271.027344 C 80.441406 272.636719 81.945312 274.464844 83.714844 276.539062 C 85.117188 277.359375 86.957031 278.71875 89.492188 280.746094 C 92.050781 282.75 95.296875 285.429688 99.628906 288.730469 C 100.121094 289.109375 99.957031 288.742188 99.417969 288.03125 C 99.144531 287.675781 98.78125 287.238281 98.359375 286.761719 C 97.9375 286.277344 97.46875 285.753906 96.96875 285.246094 C 93.832031 282.039062 90.671875 278.535156 87.816406 274.960938 C 84.957031 271.390625 82.398438 267.75 80.371094 264.367188 C 83.3125 268.53125 86.523438 272.574219 89.855469 276.367188 C 92.53125 279.417969 95.402344 282.480469 98.351562 285.328125 C 101.300781 288.175781 104.335938 290.800781 107.261719 293.007812 C 111.15625 295.910156 113.597656 297.101562 116.695312 298.761719 C 117.082031 298.972656 117.480469 299.1875 117.890625 299.414062 C 118.308594 299.636719 118.742188 299.867188 119.195312 300.109375 C 120.097656 300.609375 121.082031 301.15625 122.191406 301.773438 C 122.746094 302.085938 123.332031 302.417969 123.953125 302.773438 C 124.582031 303.117188 125.242188 303.488281 125.941406 303.886719 C 126.636719 304.292969 127.390625 304.695312 128.1875 305.140625 C 128.582031 305.363281 128.992188 305.59375 129.414062 305.828125 C 129.835938 306.066406 130.277344 306.292969 130.722656 306.542969 C 131.519531 306.761719 132.367188 307.042969 133.246094 307.285156 C 134.117188 307.527344 135 307.773438 135.835938 308.007812 C 137.515625 308.421875 138.984375 308.75 139.789062 308.742188 C 140.230469 308.734375 139.839844 308.367188 138.957031 307.757812 C 138.074219 307.152344 136.675781 306.355469 135.109375 305.476562 C 133.976562 304.871094 132.722656 304.160156 131.375 303.425781 C 130.703125 303.058594 130.023438 302.652344 129.324219 302.257812 C 128.972656 302.058594 128.621094 301.859375 128.265625 301.65625 C 127.914062 301.449219 127.5625 301.238281 127.210938 301.027344 C 124.367188 299.355469 121.527344 297.5 119.152344 295.789062 C 115.273438 292.976562 112.476562 290.496094 109.390625 287.683594 C 110.03125 288.203125 110.609375 288.609375 111.09375 288.960938 C 111.582031 289.316406 111.992188 289.597656 112.339844 289.828125 C 113.035156 290.277344 113.476562 290.488281 113.75 290.578125 C 114.300781 290.757812 114.214844 290.40625 114.328125 290.21875 C 114.441406 290.027344 114.753906 290.003906 116.101562 290.8125 C 117.472656 291.582031 119.828125 293.261719 124.320312 296.066406 C 124.945312 296.449219 125.859375 296.960938 126.878906 297.5 C 127.910156 298.015625 129.03125 298.578125 130.082031 299.050781 C 131.132812 299.515625 132.085938 299.929688 132.757812 300.1875 C 133.429688 300.441406 133.816406 300.558594 133.714844 300.460938 C 132.398438 299.214844 132.316406 298.722656 133.113281 298.871094 C 133.515625 298.9375 134.152344 299.144531 134.980469 299.476562 C 135.394531 299.644531 135.855469 299.847656 136.367188 300.0625 C 136.878906 300.273438 137.441406 300.511719 138.039062 300.773438 C 138.339844 300.90625 138.652344 301.042969 138.96875 301.183594 C 139.292969 301.320312 139.625 301.460938 139.96875 301.605469 C 140.652344 301.898438 141.378906 302.207031 142.136719 302.527344 C 142.898438 302.839844 143.699219 303.164062 144.527344 303.496094 C 145.355469 303.835938 146.222656 304.152344 147.113281 304.496094 C 150.679688 305.835938 154.71875 307.167969 158.9375 308.261719 C 162.835938 309.277344 167.261719 310.230469 171.835938 310.917969 C 176.402344 311.613281 181.109375 312.035156 185.511719 312.144531 C 189.914062 312.253906 194.011719 312.050781 197.371094 311.648438 C 200.726562 311.261719 203.34375 310.652344 204.828125 310.027344 C 204.96875 309.964844 205.191406 309.898438 205.480469 309.824219 C 205.765625 309.742188 206.121094 309.65625 206.527344 309.558594 C 206.933594 309.464844 207.394531 309.363281 207.898438 309.261719 C 208.148438 309.210938 208.410156 309.160156 208.683594 309.101562 C 208.953125 309.042969 209.230469 308.984375 209.515625 308.921875 C 210.660156 308.675781 211.921875 308.433594 213.195312 308.144531 C 213.835938 308.007812 214.476562 307.871094 215.113281 307.734375 C 215.75 307.59375 216.375 307.453125 216.984375 307.316406 C 220.328125 306.574219 223.210938 305.832031 225.136719 305.183594 C 226.097656 304.859375 226.832031 304.59375 227.257812 304.347656 C 227.691406 304.105469 227.824219 303.914062 227.605469 303.78125 C 227.332031 303.613281 227.710938 303.316406 228.535156 302.941406 C 229.367188 302.578125 230.628906 302.078125 232.136719 301.546875 C 235.144531 300.453125 239.09375 299.023438 242.414062 297.671875 C 257.308594 291.6875 271.113281 282.722656 282.761719 271.511719 C 294.421875 260.316406 303.910156 246.890625 310.582031 232.296875 C 311.054688 231.21875 311.597656 230.070312 312.082031 228.878906 C 312.332031 228.28125 312.585938 227.679688 312.839844 227.082031 C 313.082031 226.476562 313.320312 225.871094 313.554688 225.277344 C 314.511719 222.894531 315.339844 220.609375 316 218.917969 C 316.34375 218.074219 316.605469 217.367188 316.847656 216.878906 C 317.082031 216.390625 317.269531 216.109375 317.398438 216.101562 C 317.523438 216.089844 317.589844 216.351562 317.578125 216.945312 C 317.566406 217.535156 317.5 218.464844 317.277344 219.777344 C 317.09375 220.894531 317.644531 220.039062 318.410156 218.402344 C 318.773438 217.578125 319.214844 216.566406 319.632812 215.511719 C 320.03125 214.449219 320.449219 213.351562 320.792969 212.371094 C 322.054688 208.773438 323.234375 204.464844 324.179688 200.179688 C 325.132812 195.890625 325.839844 191.628906 326.398438 188.160156 C 326.710938 186.347656 326.933594 184.859375 327.167969 183.953125 C 327.398438 183.046875 327.613281 182.722656 327.804688 183.234375 C 327.898438 183.488281 327.980469 183.953125 328.0625 184.660156 C 328.132812 185.367188 328.226562 186.316406 328.242188 187.539062 C 328.257812 188.152344 328.269531 188.828125 328.273438 189.582031 C 328.28125 190.332031 328.246094 191.15625 328.226562 192.054688 C 328.210938 192.507812 328.195312 192.976562 328.179688 193.460938 C 328.152344 193.949219 328.117188 194.457031 328.085938 194.984375 C 328.050781 195.511719 328.015625 196.058594 327.976562 196.625 C 327.941406 197.191406 327.871094 197.777344 327.820312 198.386719 C 327.261719 203.953125 327.390625 205.457031 327.402344 207.753906 C 327.394531 208.328125 327.371094 208.949219 327.316406 209.699219 C 327.285156 210.070312 327.257812 210.476562 327.199219 210.921875 C 327.140625 211.363281 327.070312 211.847656 326.980469 212.382812 C 326.898438 212.914062 326.796875 213.496094 326.675781 214.140625 C 326.542969 214.777344 326.386719 215.472656 326.210938 216.238281 C 326.125 216.621094 326.027344 217.019531 325.929688 217.4375 C 325.820312 217.851562 325.703125 218.285156 325.578125 218.738281 C 325.328125 219.640625 325.070312 220.625 324.730469 221.675781 C 324.984375 221.785156 324.878906 223.359375 325.554688 221.734375 C 325.820312 221.113281 326.066406 220.464844 326.316406 219.792969 C 326.570312 219.121094 326.832031 218.429688 327.097656 217.710938 C 327.34375 216.988281 327.597656 216.242188 327.863281 215.46875 C 327.992188 215.078125 328.128906 214.6875 328.257812 214.28125 C 328.382812 213.878906 328.507812 213.464844 328.640625 213.046875 C 329.683594 209.695312 330.742188 205.828125 331.730469 201.261719 "/></g><g clip-rule="nonzero" clip-path="url(#4e2a8d3233)"><path style=" stroke:none;fill-rule:nonzero;fill:#00c008;fill-opacity:1;" d="M 141.957031 61.167969 C 142.613281 60.871094 143.265625 60.578125 143.921875 60.28125 C 144.582031 59.996094 145.242188 59.71875 145.90625 59.4375 C 147.226562 58.867188 148.585938 58.378906 149.957031 57.878906 C 150.667969 57.640625 151.386719 57.417969 152.109375 57.195312 C 152.472656 57.085938 152.832031 56.976562 153.195312 56.867188 C 153.5625 56.769531 153.929688 56.671875 154.296875 56.570312 C 155.03125 56.375 155.761719 56.175781 156.5 55.992188 C 157.238281 55.8125 157.976562 55.632812 158.714844 55.453125 C 157.996094 55.6875 157.28125 55.921875 156.5625 56.15625 C 155.84375 56.394531 155.128906 56.65625 154.40625 56.910156 C 154.042969 57.039062 153.679688 57.167969 153.316406 57.292969 C 152.953125 57.433594 152.589844 57.570312 152.222656 57.710938 C 151.488281 57.992188 150.742188 58.269531 149.988281 58.570312 C 149.144531 58.824219 148.363281 59.054688 147.628906 59.273438 C 146.894531 59.492188 146.21875 59.726562 145.570312 59.933594 C 144.269531 60.34375 143.117188 60.757812 141.957031 61.167969 Z M 251.089844 53.949219 C 247.203125 52.183594 243.300781 50.421875 239.289062 48.90625 C 240.0625 49.035156 240.742188 49.007812 241.628906 49.328125 C 242.300781 49.578125 242.972656 49.828125 243.652344 50.085938 C 243.992188 50.210938 244.335938 50.339844 244.683594 50.472656 C 245.023438 50.609375 245.371094 50.75 245.71875 50.894531 C 246.417969 51.175781 247.132812 51.464844 247.871094 51.765625 C 248.597656 52.085938 249.351562 52.414062 250.132812 52.757812 C 253.253906 54.148438 256.824219 55.84375 261.195312 58.253906 C 260.851562 58.09375 260.527344 57.941406 260.207031 57.792969 C 259.886719 57.652344 259.578125 57.511719 259.28125 57.382812 C 258.6875 57.125 258.136719 56.882812 257.625 56.65625 C 256.597656 56.214844 255.707031 55.871094 254.929688 55.550781 C 254.539062 55.390625 254.175781 55.242188 253.832031 55.101562 C 253.488281 54.964844 253.160156 54.835938 252.847656 54.710938 C 252.222656 54.457031 251.652344 54.210938 251.089844 53.949219 Z M 143.847656 59.59375 C 140.953125 60.691406 138.949219 61.167969 136.582031 62.019531 C 136.898438 61.855469 137.21875 61.691406 137.539062 61.523438 C 137.863281 61.363281 138.1875 61.207031 138.511719 61.042969 C 139.160156 60.726562 139.808594 60.40625 140.457031 60.085938 C 141.109375 59.78125 141.765625 59.488281 142.417969 59.199219 C 142.742188 59.058594 143.070312 58.917969 143.390625 58.78125 C 143.714844 58.644531 144.042969 58.523438 144.367188 58.402344 C 145.171875 58.101562 145.964844 57.804688 146.839844 57.515625 C 147.722656 57.234375 148.675781 56.933594 149.785156 56.59375 C 152.023438 55.960938 154.878906 55.140625 159.078125 54.210938 C 154.675781 55.476562 151.578125 56.644531 149.210938 57.527344 C 146.847656 58.421875 145.234375 59.101562 143.847656 59.59375 Z M 93.503906 96.644531 C 102.304688 87.148438 112.53125 78.753906 123.933594 71.890625 C 126.789062 70.179688 129.703125 68.546875 132.695312 67.035156 C 135.691406 65.527344 138.746094 64.117188 141.863281 62.804688 C 148.109375 60.21875 154.585938 58.03125 161.269531 56.375 C 163.976562 55.675781 166.757812 55.152344 169.542969 54.664062 L 171.640625 54.339844 L 172.691406 54.179688 L 173.742188 54.039062 C 174.441406 53.945312 175.144531 53.851562 175.839844 53.757812 C 176.542969 53.679688 177.242188 53.601562 177.941406 53.519531 C 181.417969 53.132812 183.226562 53.125 184.195312 53.214844 C 185.167969 53.296875 185.300781 53.484375 185.457031 53.667969 C 185.617188 53.847656 185.792969 54.027344 186.839844 54.125 C 187.363281 54.175781 188.105469 54.199219 189.167969 54.195312 C 189.699219 54.207031 190.3125 54.210938 191.019531 54.207031 C 191.726562 54.207031 192.527344 54.191406 193.4375 54.203125 C 188.730469 54.382812 184.34375 54.894531 179.367188 55.460938 C 169.820312 56.585938 160.371094 58.757812 151.277344 61.964844 C 142.199219 65.203125 133.457031 69.421875 125.363281 74.613281 L 125.738281 74.78125 L 126.621094 74.234375 L 129.304688 72.652344 C 130.515625 71.984375 131.714844 71.28125 132.949219 70.652344 C 135.386719 69.332031 137.894531 68.140625 140.425781 66.984375 C 145.503906 64.722656 150.738281 62.746094 156.136719 61.152344 C 161.523438 59.535156 167.074219 58.304688 172.742188 57.40625 C 175.582031 56.984375 178.441406 56.605469 181.339844 56.375 C 182.789062 56.226562 184.246094 56.164062 185.707031 56.0625 C 186.4375 56.027344 187.167969 56.007812 187.902344 55.976562 L 189.003906 55.933594 C 189.375 55.921875 189.742188 55.921875 190.109375 55.914062 C 179.417969 56.867188 168.308594 58.882812 157.046875 62.457031 C 145.792969 66.03125 134.386719 71.203125 123.425781 78.367188 C 115.78125 83.347656 108.699219 89.261719 102.332031 95.871094 L 101.734375 96.488281 L 101.148438 97.117188 L 99.980469 98.378906 C 99.203125 99.226562 98.457031 100.097656 97.695312 100.953125 C 96.960938 101.835938 96.210938 102.703125 95.484375 103.59375 L 93.871094 105.609375 L 93.351562 106.292969 C 90.554688 109.933594 87.953125 113.714844 85.558594 117.621094 L 86.066406 117.839844 C 92.597656 107.382812 100.6875 97.917969 109.960938 89.832031 L 109.859375 90.328125 C 101.039062 98.136719 93.304688 107.191406 86.925781 117.324219 C 80.546875 127.453125 75.527344 138.671875 72.238281 150.769531 C 74.75 142.308594 78.089844 134.28125 82.144531 126.726562 C 86.203125 119.171875 90.976562 112.089844 96.375 105.5 C 101.773438 98.914062 107.792969 92.808594 114.4375 87.265625 C 121.078125 81.726562 128.3125 76.707031 136.167969 72.339844 C 138.621094 70.984375 141.175781 69.691406 143.808594 68.472656 C 146.457031 67.277344 149.175781 66.125 151.976562 65.097656 C 157.578125 63.035156 163.460938 61.355469 169.480469 60.125 C 172.492188 59.523438 175.53125 58.992188 178.589844 58.621094 L 179.738281 58.472656 L 180.886719 58.347656 C 181.652344 58.269531 182.414062 58.171875 183.183594 58.109375 C 183.949219 58.046875 184.71875 57.984375 185.484375 57.921875 C 186.25 57.851562 187.015625 57.828125 187.78125 57.777344 C 189.3125 57.671875 190.847656 57.652344 192.371094 57.59375 C 193.136719 57.585938 193.898438 57.578125 194.660156 57.570312 L 195.800781 57.5625 L 196.9375 57.582031 C 199.972656 57.601562 202.972656 57.773438 205.9375 57.992188 C 206.726562 58.058594 207.511719 58.125 208.285156 58.191406 C 209.054688 58.273438 209.816406 58.351562 210.570312 58.429688 C 210.945312 58.472656 211.316406 58.511719 211.6875 58.550781 C 212.058594 58.597656 212.425781 58.644531 212.789062 58.691406 C 213.519531 58.785156 214.238281 58.875 214.949219 58.96875 C 216.359375 59.1875 217.734375 59.359375 219.054688 59.597656 C 219.71875 59.707031 220.367188 59.8125 221.007812 59.917969 C 221.644531 60.035156 222.269531 60.152344 222.882812 60.269531 C 227.796875 61.183594 231.925781 62.160156 235.171875 62.921875 C 235.582031 63.011719 235.972656 63.097656 236.355469 63.183594 C 236.730469 63.273438 237.09375 63.359375 237.445312 63.445312 C 238.144531 63.601562 238.789062 63.738281 239.378906 63.855469 C 240.546875 64.105469 241.488281 64.257812 242.183594 64.304688 C 243.570312 64.40625 243.96875 64.078125 243.222656 63.21875 C 242.71875 62.65625 243.632812 62.355469 241.675781 61.019531 C 241.429688 60.851562 241.140625 60.667969 240.796875 60.464844 C 240.453125 60.269531 240.050781 60.058594 239.585938 59.828125 C 239.121094 59.601562 238.59375 59.347656 237.996094 59.078125 C 237.398438 58.808594 236.71875 58.539062 235.964844 58.234375 C 232.9375 57.054688 228.585938 55.585938 222.273438 54.207031 C 221.183594 53.988281 220.007812 53.703125 218.769531 53.414062 C 218.152344 53.269531 217.515625 53.121094 216.871094 52.976562 C 216.550781 52.898438 216.226562 52.820312 215.898438 52.742188 C 215.570312 52.667969 215.238281 52.597656 214.90625 52.523438 C 214.242188 52.378906 213.570312 52.230469 212.898438 52.082031 C 212.226562 51.9375 211.546875 51.808594 210.867188 51.675781 C 209.515625 51.394531 208.164062 51.179688 206.851562 50.972656 C 214.414062 51.625 222.097656 53.066406 229.089844 55.015625 C 232.585938 56 235.902344 57.125 238.957031 58.300781 C 239.71875 58.601562 240.464844 58.902344 241.199219 59.191406 C 241.921875 59.503906 242.632812 59.8125 243.328125 60.113281 C 244.023438 60.410156 244.695312 60.726562 245.34375 61.035156 C 245.996094 61.347656 246.632812 61.648438 247.242188 61.957031 C 250.945312 63.820312 254.328125 65.675781 257.503906 67.511719 C 260.679688 69.351562 263.652344 71.171875 266.5 73.019531 C 269.335938 74.886719 272.050781 76.773438 274.707031 78.746094 C 277.359375 80.722656 279.933594 82.808594 282.503906 85.046875 C 283.101562 85.574219 283.691406 86.089844 284.273438 86.597656 C 284.847656 87.117188 285.414062 87.628906 285.976562 88.132812 C 286.542969 88.632812 287.09375 89.144531 287.636719 89.65625 C 288.179688 90.164062 288.734375 90.660156 289.265625 91.179688 C 291.402344 93.230469 293.457031 95.351562 295.46875 97.738281 C 298.582031 101.441406 300.90625 104.535156 302.734375 106.988281 C 304.570312 109.441406 305.890625 111.265625 306.890625 112.527344 C 307.398438 113.152344 307.808594 113.648438 308.152344 114.015625 C 308.496094 114.382812 308.777344 114.621094 309 114.75 C 309.445312 115.007812 309.664062 114.820312 309.730469 114.324219 C 309.757812 114.101562 310.21875 114.496094 310.859375 115.265625 C 311.171875 115.65625 311.53125 116.136719 311.902344 116.679688 C 312.273438 117.222656 312.671875 117.820312 313.023438 118.460938 C 315.609375 122.988281 317.332031 126.523438 318.730469 129.519531 C 319.070312 130.277344 319.394531 130.996094 319.707031 131.691406 C 319.859375 132.035156 320.011719 132.378906 320.164062 132.710938 C 320.304688 133.050781 320.445312 133.386719 320.589844 133.714844 C 320.867188 134.371094 321.144531 135.011719 321.414062 135.648438 C 321.671875 136.289062 321.929688 136.921875 322.1875 137.5625 C 323.226562 140.109375 324.226562 142.738281 325.398438 146.097656 C 326.5625 149.460938 327.886719 153.5625 329.238281 159.160156 C 327.9375 152.132812 326.230469 145.828125 324.238281 139.964844 C 322.265625 134.089844 319.976562 128.65625 317.453125 123.335938 C 317.050781 122.484375 316.535156 121.417969 316.035156 120.289062 C 315.523438 119.164062 314.972656 117.996094 314.5 116.9375 C 313.511719 114.839844 312.78125 113.191406 312.972656 113.34375 C 313.316406 113.585938 313.839844 114.1875 314.542969 115.074219 C 314.886719 115.523438 315.289062 116.035156 315.695312 116.628906 C 316.109375 117.222656 316.558594 117.886719 317.035156 118.605469 C 318.925781 121.503906 321.191406 125.433594 323.359375 129.996094 C 325.535156 134.554688 327.617188 139.738281 329.257812 145.023438 C 330.917969 150.300781 332.167969 155.660156 332.945312 160.472656 C 333.527344 164.082031 333.859375 168.015625 334.171875 171.40625 C 334.554688 175.480469 334.890625 179.132812 335.046875 182.992188 C 335.117188 181.773438 335.203125 180.65625 335.273438 179.476562 C 335.328125 178.300781 335.355469 177.058594 335.335938 175.605469 L 335.25 173.207031 L 335.207031 172.003906 L 334.984375 168.40625 L 334.777344 166.007812 L 334.671875 164.808594 L 334.539062 163.609375 C 334.449219 162.808594 334.359375 162.007812 334.265625 161.207031 C 334.15625 160.40625 334.046875 159.609375 333.9375 158.808594 L 333.769531 157.605469 L 333.570312 156.40625 C 333.4375 155.609375 333.304688 154.804688 333.171875 154.003906 C 333.015625 153.207031 332.863281 152.40625 332.707031 151.605469 C 332.628906 151.207031 332.554688 150.804688 332.46875 150.402344 L 332.207031 149.203125 C 332.027344 148.40625 331.855469 147.601562 331.667969 146.804688 C 330.890625 143.605469 330.011719 140.40625 328.992188 137.210938 C 324.476562 123.105469 317.675781 109.660156 308.957031 97.527344 C 300.246094 85.382812 289.570312 74.585938 277.460938 65.660156 C 272.492188 61.972656 267.253906 58.648438 261.847656 55.621094 C 259.128906 54.136719 256.386719 52.695312 253.574219 51.378906 C 252.179688 50.699219 250.753906 50.085938 249.339844 49.453125 C 248.632812 49.136719 247.910156 48.851562 247.195312 48.546875 C 246.476562 48.253906 245.765625 47.941406 245.039062 47.667969 C 239.265625 45.394531 233.347656 43.449219 227.316406 41.941406 C 226.5625 41.753906 225.808594 41.558594 225.054688 41.382812 L 222.777344 40.867188 L 221.640625 40.617188 L 220.5 40.386719 L 218.210938 39.9375 C 215.148438 39.394531 212.078125 38.890625 208.988281 38.542969 C 205.90625 38.15625 202.804688 37.914062 199.703125 37.722656 L 196.210938 37.570312 L 195.042969 37.546875 L 192.714844 37.503906 C 191.9375 37.496094 191.160156 37.507812 190.382812 37.511719 C 187.277344 37.519531 184.167969 37.667969 181.0625 37.871094 L 178.734375 38.0625 L 177.574219 38.160156 L 176.414062 38.285156 L 174.089844 38.535156 L 171.773438 38.839844 C 159.425781 40.5 147.28125 43.8125 135.746094 48.578125 C 136.457031 48.371094 137.1875 48.148438 137.9375 47.917969 C 138.3125 47.796875 138.691406 47.675781 139.074219 47.554688 C 139.460938 47.441406 139.851562 47.324219 140.246094 47.203125 C 141.035156 46.960938 141.839844 46.714844 142.65625 46.464844 C 143.480469 46.222656 144.3125 45.976562 145.15625 45.730469 C 148.535156 44.765625 152.066406 43.796875 155.527344 43.054688 C 156.398438 42.847656 157.226562 42.703125 158.019531 42.554688 C 158.816406 42.414062 159.574219 42.265625 160.324219 42.160156 C 161.828125 41.945312 163.265625 41.71875 164.808594 41.542969 C 163.332031 41.875 161.632812 42.378906 160.066406 42.796875 C 158.511719 43.253906 157.09375 43.652344 156.1875 43.863281 C 151.769531 44.863281 148.058594 46.0625 144.691406 47.328125 C 143 47.949219 141.414062 48.640625 139.847656 49.304688 C 138.300781 50.019531 136.769531 50.699219 135.261719 51.464844 C 132.21875 52.957031 129.175781 54.597656 125.792969 56.5 C 122.410156 58.410156 118.683594 60.582031 114.359375 63.296875 C 113.609375 63.777344 113.035156 64.148438 112.613281 64.433594 C 112.191406 64.722656 111.925781 64.929688 111.777344 65.054688 C 111.484375 65.3125 111.683594 65.269531 112.15625 65.058594 C 112.632812 64.835938 113.390625 64.488281 114.222656 64.101562 C 115.050781 63.714844 115.945312 63.289062 116.714844 62.988281 C 118.246094 62.375 119.191406 62.128906 117.867188 63.210938 C 117.535156 63.480469 117.0625 63.832031 116.421875 64.285156 C 115.792969 64.75 114.996094 65.316406 114.007812 66.003906 C 112.054688 67.40625 109.335938 69.285156 105.832031 72.019531 C 106.175781 71.878906 106.363281 71.953125 106.882812 71.570312 C 110.839844 68.648438 113.414062 67.109375 115.03125 66.269531 C 116.652344 65.429688 117.308594 65.273438 117.613281 65.367188 C 118.207031 65.539062 117.359375 66.625 119.882812 65.273438 C 123.839844 63.199219 126.136719 62.226562 127.136719 61.84375 C 128.148438 61.484375 127.867188 61.726562 126.796875 62.363281 C 126.269531 62.6875 125.539062 63.113281 124.679688 63.609375 C 123.8125 64.101562 122.835938 64.710938 121.769531 65.335938 C 120.710938 65.96875 119.597656 66.6875 118.453125 67.394531 C 117.894531 67.765625 117.328125 68.136719 116.765625 68.511719 C 116.203125 68.882812 115.644531 69.246094 115.109375 69.632812 C 101.480469 79 89.566406 90.867188 80.113281 104.429688 C 79.570312 106.5 75.679688 112.496094 72.183594 119.339844 C 70.425781 122.75 68.734375 126.351562 67.433594 129.636719 C 67.097656 130.449219 66.8125 131.257812 66.523438 132.023438 C 66.382812 132.410156 66.246094 132.785156 66.113281 133.152344 C 65.992188 133.523438 65.871094 133.882812 65.757812 134.234375 C 65.53125 134.933594 65.324219 135.597656 65.148438 136.207031 C 64.976562 136.824219 64.839844 137.390625 64.726562 137.902344 C 65.6875 135.378906 66.769531 132.882812 67.878906 130.398438 C 69.03125 127.9375 70.210938 125.484375 71.5 123.105469 C 72.757812 120.710938 74.121094 118.394531 75.5 116.128906 C 75.847656 115.566406 76.207031 115.011719 76.558594 114.453125 C 76.917969 113.902344 77.257812 113.339844 77.628906 112.804688 C 78.367188 111.722656 79.070312 110.636719 79.828125 109.601562 C 80.277344 108.972656 80.695312 108.398438 81.066406 107.894531 C 81.453125 107.394531 81.796875 106.964844 82.085938 106.609375 C 82.667969 105.902344 83.039062 105.503906 83.128906 105.507812 C 83.222656 105.511719 83.03125 105.914062 82.492188 106.808594 C 81.941406 107.699219 81.074219 109.097656 79.828125 111.105469 C 76.898438 115.902344 74.179688 121.003906 72.242188 125.199219 C 78.117188 114.574219 85.351562 104.917969 93.664062 96.445312 L 93.503906 96.644531 "/></g><path style=" stroke:none;fill-rule:nonzero;fill:#00c008;fill-opacity:1;" d="M 95.382812 109.542969 C 97.238281 106.996094 99.324219 104.386719 101.621094 101.75 C 103.917969 99.117188 106.433594 96.457031 109.171875 93.832031 C 114.640625 88.574219 121.011719 83.460938 128.160156 78.894531 C 131.730469 76.617188 135.492188 74.46875 139.417969 72.507812 C 143.347656 70.550781 147.433594 68.777344 151.644531 67.21875 C 155.851562 65.65625 160.179688 64.3125 164.582031 63.203125 C 168.988281 62.101562 173.46875 61.246094 177.976562 60.628906 C 183.988281 59.789062 189.859375 59.476562 195.636719 59.523438 C 201.410156 59.625 207.085938 60.078125 212.714844 61.019531 C 218.347656 61.933594 223.929688 63.308594 229.515625 65.132812 C 232.308594 66.054688 235.089844 67.113281 237.882812 68.277344 C 240.667969 69.457031 243.449219 70.78125 246.238281 72.234375 C 250.300781 74.386719 253.09375 76.101562 254.914062 77.300781 C 255.367188 77.597656 255.765625 77.855469 256.105469 78.085938 C 256.441406 78.320312 256.722656 78.519531 256.949219 78.6875 C 257.402344 79.027344 257.648438 79.230469 257.707031 79.320312 C 257.816406 79.5 257.171875 79.222656 255.945312 78.625 C 255.328125 78.335938 254.558594 77.976562 253.664062 77.554688 C 253.21875 77.339844 252.734375 77.128906 252.21875 76.902344 C 251.707031 76.679688 251.164062 76.441406 250.597656 76.191406 C 247.617188 74.941406 245.496094 74.234375 244.273438 73.957031 C 243.046875 73.6875 242.726562 73.824219 243.304688 74.371094 C 243.882812 74.914062 245.355469 75.875 247.664062 77.359375 C 249.972656 78.835938 253.113281 80.847656 256.917969 83.632812 C 260.785156 86.472656 262.414062 88.121094 262.671875 88.648438 C 262.917969 89.191406 261.738281 88.699219 259.722656 87.625 C 251.484375 83.320312 242.074219 79.492188 232.183594 77.058594 C 231.9375 76.996094 231.652344 76.917969 231.335938 76.820312 C 231.015625 76.730469 230.660156 76.632812 230.273438 76.527344 C 229.507812 76.308594 228.644531 76.027344 227.71875 75.773438 C 226.796875 75.503906 225.835938 75.210938 224.875 74.953125 C 224.398438 74.820312 223.925781 74.683594 223.464844 74.554688 C 223 74.429688 222.546875 74.308594 222.117188 74.195312 C 220.722656 73.800781 219.328125 73.488281 217.949219 73.160156 C 216.558594 72.878906 215.183594 72.570312 213.804688 72.347656 C 212.433594 72.085938 211.058594 71.90625 209.695312 71.703125 C 209.011719 71.621094 208.332031 71.539062 207.652344 71.457031 C 206.972656 71.371094 206.292969 71.308594 205.617188 71.25 C 200.195312 70.722656 194.84375 70.667969 189.507812 70.867188 C 178.480469 71.335938 167.253906 73.257812 156.285156 76.945312 C 145.328125 80.632812 134.628906 86.054688 124.871094 93.238281 C 133.734375 86.109375 143.777344 80.324219 154.464844 76.167969 C 165.152344 72.007812 176.480469 69.503906 187.914062 68.691406 C 196.191406 68.101562 204.394531 68.351562 212.449219 69.433594 C 220.511719 70.511719 228.4375 72.453125 236.167969 75.257812 L 236.382812 74.738281 C 230.132812 72.082031 223.59375 69.957031 217.023438 68.4375 C 216.707031 68.359375 216.382812 68.285156 216.054688 68.203125 C 215.722656 68.136719 215.390625 68.066406 215.050781 67.996094 C 214.371094 67.855469 213.679688 67.703125 212.980469 67.570312 C 211.578125 67.320312 210.164062 67.046875 208.804688 66.84375 C 206.089844 66.394531 203.628906 66.09375 202.121094 65.816406 C 199.058594 65.28125 195.867188 64.914062 192.570312 64.761719 C 189.273438 64.621094 185.882812 64.667969 182.433594 64.929688 C 175.53125 65.4375 168.398438 66.839844 161.308594 69.058594 C 157.730469 70.179688 153.910156 71.554688 150.433594 73.046875 C 146.957031 74.53125 143.824219 76.132812 141.53125 77.496094 C 137.722656 79.792969 134.792969 81.699219 131.664062 83.636719 C 128.542969 85.589844 125.230469 87.578125 120.855469 90.40625 C 120.210938 90.808594 119.519531 91.308594 118.753906 91.863281 C 117.984375 92.410156 117.171875 93.054688 116.296875 93.746094 C 116.078125 93.921875 115.855469 94.097656 115.628906 94.277344 C 115.40625 94.464844 115.183594 94.65625 114.953125 94.847656 C 114.496094 95.234375 114.023438 95.636719 113.539062 96.046875 C 113.0625 96.472656 112.574219 96.910156 112.074219 97.359375 C 111.824219 97.582031 111.566406 97.808594 111.316406 98.042969 C 111.066406 98.28125 110.8125 98.523438 110.554688 98.765625 C 110.046875 99.257812 109.503906 99.742188 108.988281 100.269531 C 108.464844 100.789062 107.929688 101.324219 107.382812 101.867188 C 106.851562 102.425781 106.308594 102.992188 105.757812 103.570312 C 105.199219 104.140625 104.667969 104.753906 104.109375 105.359375 C 101.898438 107.808594 99.652344 110.492188 97.441406 113.382812 C 101.808594 107.246094 106.632812 101.730469 111.75 96.808594 C 116.867188 91.882812 122.28125 87.550781 127.894531 83.792969 C 133.503906 80.035156 139.292969 76.804688 145.214844 74.128906 C 148.175781 72.789062 151.160156 71.566406 154.171875 70.472656 C 157.1875 69.394531 160.226562 68.429688 163.28125 67.582031 C 163.902344 67.414062 164.515625 67.246094 165.121094 67.082031 C 165.726562 66.90625 166.335938 66.769531 166.933594 66.609375 C 167.53125 66.457031 168.125 66.285156 168.71875 66.140625 C 169.316406 65.996094 169.910156 65.847656 170.507812 65.703125 L 171.402344 65.480469 C 171.699219 65.410156 172 65.339844 172.300781 65.273438 C 172.90625 65.132812 173.507812 64.992188 174.121094 64.851562 C 174.734375 64.722656 175.351562 64.585938 175.980469 64.453125 C 176.605469 64.320312 177.242188 64.175781 177.890625 64.0625 C 178.539062 63.9375 179.199219 63.8125 179.871094 63.679688 C 180.542969 63.554688 181.230469 63.449219 181.933594 63.328125 C 182.636719 63.207031 183.351562 63.089844 184.09375 62.992188 C 184.832031 62.886719 185.589844 62.78125 186.363281 62.675781 C 189.476562 62.289062 192.929688 61.980469 196.871094 61.855469 C 184.890625 61.382812 173.355469 62.644531 162.738281 65.285156 C 162.074219 65.4375 161.417969 65.621094 160.757812 65.796875 C 160.105469 65.972656 159.445312 66.132812 158.796875 66.328125 C 157.503906 66.707031 156.210938 67.074219 154.945312 67.496094 C 152.398438 68.289062 149.925781 69.199219 147.507812 70.136719 C 142.683594 72.058594 138.09375 74.1875 133.800781 76.554688 C 129.507812 78.914062 125.472656 81.433594 121.734375 84.097656 C 117.996094 86.761719 114.53125 89.535156 111.34375 92.367188 C 104.964844 98.023438 99.691406 103.894531 95.382812 109.542969 "/><path style=" stroke:none;fill-rule:nonzero;fill:#00c008;fill-opacity:1;" d="M 93.503906 96.644531 C 91.691406 98.886719 89.484375 101.570312 87.308594 104.46875 C 85.136719 107.367188 82.988281 110.46875 81.171875 113.417969 C 80.25 114.886719 79.441406 116.335938 78.707031 117.667969 C 78.351562 118.34375 78.023438 118.992188 77.714844 119.609375 C 77.566406 119.917969 77.417969 120.21875 77.277344 120.511719 C 77.144531 120.804688 77.019531 121.09375 76.902344 121.371094 C 75.933594 123.578125 75.507812 125.199219 75.761719 125.8125 C 75.773438 125.847656 75.660156 126.132812 75.449219 126.605469 C 75.246094 127.082031 74.957031 127.75 74.597656 128.542969 C 74.421875 128.941406 74.21875 129.363281 74.023438 129.820312 C 73.824219 130.277344 73.613281 130.757812 73.398438 131.253906 C 73.183594 131.75 72.945312 132.253906 72.726562 132.78125 C 72.503906 133.300781 72.277344 133.832031 72.050781 134.363281 C 70.21875 138.601562 68.558594 142.9375 67.957031 142.902344 C 67.953125 142.910156 68 143.070312 68 143.070312 C 67.046875 144.210938 66.996094 143.164062 67.78125 140.226562 C 68.582031 137.296875 70.316406 132.507812 73.3125 126.445312 C 78.652344 115.675781 85.507812 105.496094 93.628906 96.488281 C 93.664062 96.445312 93.503906 96.644531 93.503906 96.644531 "/><path style=" stroke:none;fill-rule:nonzero;fill:#00c008;fill-opacity:1;" d="M 64.945312 185.570312 C 64.941406 184.6875 64.941406 183.828125 64.941406 182.992188 C 64.960938 182.152344 64.976562 181.339844 64.996094 180.542969 C 65.003906 179.75 65.050781 178.976562 65.085938 178.226562 C 65.125 177.472656 65.140625 176.738281 65.195312 176.023438 C 65.304688 174.597656 65.378906 173.242188 65.519531 171.960938 C 65.582031 171.320312 65.644531 170.695312 65.703125 170.085938 C 65.777344 169.476562 65.847656 168.882812 65.917969 168.304688 C 66.496094 163.675781 67.210938 160 68.007812 156.734375 C 68.25 155.785156 68.484375 154.992188 68.71875 154.296875 C 68.964844 153.605469 69.207031 153.011719 69.445312 152.464844 C 69.910156 151.363281 70.414062 150.449219 70.925781 149.261719 C 70.640625 150.390625 70.332031 151.601562 70.078125 152.84375 C 69.945312 153.460938 69.804688 154.085938 69.675781 154.707031 C 69.558594 155.328125 69.4375 155.945312 69.324219 156.550781 C 68.859375 158.96875 68.496094 161.183594 68.195312 162.613281 C 68.101562 163.050781 68.007812 163.488281 67.914062 163.914062 C 67.828125 164.347656 67.746094 164.773438 67.660156 165.199219 C 67.496094 166.050781 67.308594 166.882812 67.167969 167.726562 C 67.015625 168.570312 66.859375 169.414062 66.703125 170.269531 C 66.5625 171.128906 66.421875 171.996094 66.277344 172.890625 C 65.734375 176.46875 65.226562 180.445312 64.945312 185.570312 "/><path style=" stroke:none;fill-rule:nonzero;fill:#00c008;fill-opacity:1;" d="M 64.425781 214.386719 C 65.222656 218.015625 66.160156 221.621094 67.265625 225.175781 C 68.375 228.730469 69.628906 232.242188 71.03125 235.699219 C 73.828125 242.621094 77.246094 249.300781 81.195312 255.667969 L 80.167969 254.65625 L 79.164062 253.617188 C 77.277344 250.410156 75.519531 247.128906 73.910156 243.777344 C 72.308594 240.425781 70.84375 237.011719 69.523438 233.550781 C 66.867188 226.628906 64.851562 219.484375 63.40625 212.246094 C 63.722656 212.96875 64.089844 213.679688 64.425781 214.386719 "/><path style=" stroke:none;fill-rule:nonzero;fill:#00c008;fill-opacity:1;" d="M 68 143.070312 C 68 143.070312 67.953125 142.910156 67.957031 142.902344 C 66.375 148.191406 65.179688 153.351562 64.195312 158.0625 C 63.210938 162.777344 62.453125 167.046875 61.703125 170.589844 C 61.695312 170.644531 61.6875 170.457031 61.683594 170.128906 C 61.683594 169.964844 61.683594 169.769531 61.683594 169.550781 C 61.6875 169.335938 61.699219 169.097656 61.707031 168.851562 C 61.742188 167.875 61.792969 166.792969 61.839844 166.484375 C 63.171875 158.351562 65.246094 150.597656 68 143.070312 "/><path style=" stroke:none;fill-rule:nonzero;fill:#00c008;fill-opacity:1;" d="M 84.492188 86.75 C 87.9375 83.058594 91.570312 79.546875 95.367188 76.234375 C 99.171875 72.929688 103.144531 69.828125 107.261719 66.941406 L 106.699219 67.742188 C 98.195312 73.914062 90.363281 81.023438 83.371094 88.90625 C 83.734375 88.183594 84.117188 87.472656 84.492188 86.75 "/><path style=" stroke:none;fill-rule:nonzero;fill:#00c008;fill-opacity:1;" d="M 152.265625 60.855469 C 147.964844 62.265625 143.742188 63.90625 139.613281 65.765625 C 135.484375 67.632812 131.460938 69.71875 127.554688 72.007812 L 127.464844 71.796875 C 131.375 69.503906 135.40625 67.414062 139.539062 65.550781 C 143.671875 63.6875 147.902344 62.046875 152.210938 60.632812 L 152.265625 60.855469 "/><path style=" stroke:none;fill-rule:nonzero;fill:#00c008;fill-opacity:1;" d="M 97.246094 269 C 96.601562 268.226562 95.910156 267.433594 95.238281 266.617188 C 94.574219 265.792969 93.886719 264.972656 93.253906 264.152344 C 92.621094 263.328125 92 262.535156 91.449219 261.769531 C 90.902344 261.003906 90.402344 260.285156 89.972656 259.644531 C 89.015625 258.148438 88.296875 256.941406 87.703125 255.78125 C 87.402344 255.203125 87.117188 254.648438 86.824219 254.089844 C 86.546875 253.519531 86.265625 252.949219 85.960938 252.34375 C 88.121094 255.726562 90.828125 259.332031 92.839844 262.0625 C 95.5625 265.746094 97.800781 268.742188 100.46875 271.878906 C 99.917969 271.414062 99.382812 270.933594 98.847656 270.449219 C 98.316406 269.96875 97.769531 269.492188 97.246094 269 "/><path style=" stroke:none;fill-rule:nonzero;fill:#00c008;fill-opacity:1;" d="M 127.1875 81.949219 C 128.015625 81.394531 128.867188 80.878906 129.707031 80.335938 C 130.550781 79.804688 131.417969 79.308594 132.273438 78.796875 C 133 78.371094 133.761719 78.011719 134.503906 77.621094 C 132.78125 78.578125 131.082031 79.582031 129.40625 80.613281 C 128.671875 81.078125 127.914062 81.484375 127.1875 81.949219 "/><path style=" stroke:none;fill-rule:nonzero;fill:#00c008;fill-opacity:1;" d="M 89.039062 130.21875 C 88.613281 131.105469 88.222656 131.925781 87.839844 132.71875 C 87.480469 133.519531 87.128906 134.292969 86.777344 135.070312 C 86.484375 135.726562 86.160156 136.410156 85.84375 137.078125 C 86.15625 136.328125 86.433594 135.558594 86.78125 134.820312 C 87.125 134.089844 87.472656 133.359375 87.832031 132.597656 C 88.214844 131.84375 88.609375 131.0625 89.039062 130.21875 "/><path style=" stroke:none;fill-rule:nonzero;fill:#00c008;fill-opacity:1;" d="M 319.707031 168.484375 C 319.574219 167.726562 319.453125 166.972656 319.296875 166.21875 C 319.140625 165.464844 319 164.707031 318.890625 163.941406 C 318.605469 162.101562 318.417969 160.21875 318.109375 158.363281 C 318.292969 159.121094 318.503906 159.867188 318.679688 160.625 C 318.851562 161.386719 319.011719 162.148438 319.144531 162.933594 C 319.300781 163.835938 319.378906 164.765625 319.480469 165.691406 C 319.582031 166.617188 319.632812 167.554688 319.707031 168.484375 "/><g clip-rule="nonzero" clip-path="url(#2ec9be020a)"><path style=" stroke:none;fill-rule:nonzero;fill:#00c008;fill-opacity:1;" d="M 130.21875 115.871094 C 127.921875 117.777344 125.804688 119.820312 123.867188 122.003906 C 124.796875 121.046875 125.761719 120.085938 126.757812 119.117188 C 127.632812 118.265625 128.785156 117.179688 130.21875 115.871094 M 120.855469 117.679688 C 119.296875 119.078125 117.914062 120.40625 116.703125 121.664062 C 115.496094 122.921875 114.417969 124.136719 113.464844 125.308594 C 115.621094 122.875 118.082031 120.332031 120.855469 117.679688 M 282.894531 163.039062 L 282.855469 163.449219 L 282.84375 163.863281 L 282.867188 164.277344 L 282.925781 164.703125 L 283.023438 165.132812 L 283.167969 165.570312 L 283.355469 166.015625 L 283.597656 166.472656 L 283.894531 166.941406 L 284.25 167.425781 L 284.667969 167.921875 L 285.15625 168.4375 C 284.511719 166.832031 283.757812 165.03125 282.894531 163.039062 M 192.339844 87.832031 L 191.039062 87.84375 C 163.871094 89.019531 140.496094 98.949219 120.914062 117.632812 C 141.476562 99.601562 164.558594 90.320312 190.15625 89.789062 C 203.488281 89.878906 214.847656 91.894531 224.226562 95.828125 C 238.253906 101.445312 249.46875 108.199219 257.867188 116.085938 C 263.976562 121.816406 268.527344 126.902344 271.519531 131.34375 C 264 120.753906 252.628906 111.605469 237.410156 103.902344 C 220.859375 96.296875 204.703125 92.496094 188.941406 92.5 C 167.621094 92.078125 148.058594 99.859375 130.253906 115.839844 C 148.640625 101.164062 169.191406 94.65625 191.910156 96.316406 C 218.320312 98.707031 240.480469 108.164062 258.398438 124.679688 C 268.160156 133.902344 276.324219 146.6875 282.894531 163.03125 C 284.160156 158.878906 284.519531 156.382812 283.972656 155.546875 C 286.582031 163.367188 288.132812 171.484375 288.621094 179.902344 C 290.386719 203.695312 282.941406 226.121094 266.289062 247.175781 C 293.613281 216.3125 299.144531 181.90625 282.886719 143.964844 C 274.035156 125.855469 262.410156 112.617188 248.011719 104.253906 C 230.007812 93.476562 211.449219 88.003906 192.339844 87.832031 M 266.257812 247.210938 L 265.570312 247.953125 C 263.496094 250.191406 261.277344 252.457031 258.90625 254.746094 L 260.511719 253.460938 L 260.859375 253.167969 C 260.960938 253.097656 261.367188 252.710938 262.078125 252.011719 C 262.671875 251.410156 263.320312 250.703125 264.027344 249.894531 L 265.113281 248.617188 L 266.257812 247.210938 M 123.832031 122.042969 L 122.140625 123.824219 C 102.921875 145.371094 94.351562 169.566406 96.441406 196.402344 C 93.351562 184.863281 93.511719 172.792969 96.925781 160.195312 C 100.222656 146.867188 105.726562 135.25 113.433594 125.34375 C 100.671875 139.992188 93.667969 158.746094 92.421875 181.609375 C 92.386719 185.734375 93.074219 190.902344 94.488281 197.109375 C 99.46875 214.785156 102.378906 224.164062 103.226562 225.25 C 108.71875 237.753906 115.183594 247.464844 122.621094 254.378906 C 132.125 263.273438 142.589844 269.945312 154.015625 274.402344 C 165.546875 279.1875 176.476562 281.488281 186.796875 281.300781 C 201.558594 280.980469 215.433594 278.777344 228.425781 274.691406 C 237.855469 271.328125 248.011719 264.6875 258.882812 254.765625 C 247.632812 263.734375 237.957031 269.46875 229.859375 271.976562 C 214.703125 276.140625 200.714844 278.125 187.890625 277.925781 C 179.847656 278.484375 168.394531 275.566406 153.527344 269.167969 C 142.667969 264.417969 133.703125 258.550781 126.628906 251.574219 C 120.972656 245.902344 116.675781 240.609375 113.738281 235.699219 C 122.496094 246.207031 135.199219 256.238281 151.847656 265.789062 C 159.851562 270.25 167.820312 273.445312 175.753906 275.378906 C 177.796875 275.84375 178.949219 276.011719 179.214844 275.878906 C 179.359375 275.832031 179.34375 275.734375 179.171875 275.578125 C 179.523438 275.824219 180.046875 275.59375 180.75 274.890625 C 181.339844 274.175781 181.722656 273.472656 181.90625 272.78125 C 171.398438 272.535156 155.207031 265.367188 133.339844 251.273438 C 120.859375 241.957031 111.464844 231.023438 105.160156 218.480469 C 99.191406 204.199219 97.902344 187.25 101.296875 167.625 C 103.792969 152.398438 111.304688 137.203125 123.832031 122.042969 "/></g></g></svg>